<svg width="120" height="142" xmlns="http://www.w3.org/2000/svg" preserveAspectRatio="xMidYMid meet">
 <metadata>Created by potrace 1.10, written by Peter Selinger 2001-2011</metadata>

 <g>
  <title>LOGO</title>
  <g id="svg_1" fill="#000000" transform="translate(0,142) scale(0.10000000149011612,-0.10000000149011612) ">
   <path id="svg_2" d="m535,1390c-3,-5 -19,-10 -36,-10c-16,0 -29,-4 -29,-10c0,-5 -15,-10 -32,-10c-25,0 -29,-3 -18,-10c11,-7 7,-10 -17,-10c-18,0 -33,-4 -33,-10c0,-5 -13,-10 -30,-10c-16,0 -30,-4 -30,-10c0,-5 -11,-10 -25,-10c-14,0 -25,-4 -25,-10c0,-5 -13,-10 -30,-10c-16,0 -30,-4 -30,-9c0,-6 -15,-11 -32,-13c-18,-2 -32,-6 -30,-10c1,-5 5,-8 8,-7c4,0 10,-4 13,-10c4,-6 19,-12 34,-13c15,-1 27,-7 27,-12c0,-5 3,-7 6,-3c4,3 24,-3 45,-13c21,-11 47,-20 59,-20c11,0 20,-4 20,-10c0,-5 9,-10 20,-10c11,0 20,-6 20,-12c0,-9 4,-8 10,2c6,10 10,11 10,3c0,-7 9,-13 20,-13c11,0 20,-4 20,-10c0,-5 14,-10 31,-10c17,0 28,-4 24,-10c-4,-6 13,-10 44,-10c28,0 51,5 51,10c0,6 16,10 36,10c21,0 33,4 29,10c-4,6 7,10 24,10c17,0 31,5 31,10c0,6 11,10 24,10c13,0 26,4 28,9c2,5 14,11 28,13c14,1 27,5 30,9c7,8 94,39 109,39c12,0 41,24 41,34c0,3 -13,6 -30,6c-16,0 -30,5 -30,10c0,6 -11,10 -25,10c-14,0 -25,5 -25,10c0,6 -13,10 -30,10c-16,0 -30,5 -30,10c0,6 -13,10 -30,10c-16,0 -30,5 -30,10c0,6 -11,10 -25,10c-14,0 -25,5 -25,10c0,6 -13,10 -29,10c-16,0 -31,4 -33,10c-1,5 -15,11 -30,12c-16,1 -28,6 -28,10c0,12 -38,10 -45,-2zm170,-78c175,-64 169,-61 156,-76c-6,-7 -30,-18 -53,-25c-24,-7 -47,-16 -53,-21c-5,-4 -37,-15 -70,-26c-33,-10 -63,-22 -66,-26c-12,-18 -88,-10 -165,17c-43,15 -83,32 -88,36c-6,5 -16,9 -23,9c-7,0 -34,10 -59,21l-46,22l44,17c24,10 81,32 128,50c47,17 94,36 105,41c31,13 70,5 190,-39z"/>
   <path id="svg_3" d="m973,1155c-9,-10 -13,-54 -13,-145l0,-130l30,0l30,0l0,145c0,132 -2,145 -17,145c-10,-1 -24,-7 -30,-15z"/>
   <path id="svg_4" d="m810,1100c0,-5 -9,-10 -20,-10c-11,0 -20,-4 -20,-10c0,-5 -8,-10 -19,-10c-10,0 -32,-7 -47,-15c-16,-8 -37,-15 -46,-15c-10,0 -18,-4 -18,-8c0,-13 -88,-35 -102,-26c-16,10 -75,33 -102,39c-11,3 -22,8 -25,12c-3,5 -17,10 -31,11c-14,2 -26,8 -28,13c-2,5 -17,9 -33,9c-29,0 -29,-1 -29,-57c1,-97 -10,-93 274,-93c216,0 246,2 246,16c0,8 5,12 10,9c6,-4 10,22 10,69c0,44 -4,76 -10,76c-5,0 -10,-4 -10,-10zm7,-102c-2,-13 -4,-5 -4,17c-1,22 1,32 4,23c2,-10 2,-28 0,-40zm-386,14c21,-9 39,-20 39,-24c0,-9 -101,-11 -124,-2c-16,6 -22,35 -9,48c9,9 41,1 94,-22zm357,1c-3,-27 -5,-28 -75,-31c-40,-2 -73,1 -73,6c0,9 106,50 133,51c14,1 18,-5 15,-26z"/>
   <path id="svg_5" d="m465,868c-2,-7 -6,-70 -7,-139c-3,-133 1,-149 42,-149c20,0 20,4 18,148c-3,144 -3,147 -26,150c-12,2 -24,-3 -27,-10z"/>
   <path id="svg_6" d="m600,730l0,-150l30,0l30,0l0,148l0,148l-30,2l-30,2l0,-150z"/>
   <path id="svg_7" d="m347,803c-15,-2 -25,-9 -22,-14c4,-5 -6,-9 -20,-9c-15,0 -24,-4 -20,-10c3,-5 1,-10 -5,-10c-6,0 -17,-6 -24,-12c-8,-7 -23,-20 -35,-28c-11,-8 -21,-20 -21,-27c0,-7 -4,-13 -10,-13c-5,0 -10,-7 -10,-15c0,-8 -4,-15 -10,-15c-5,0 -10,-9 -10,-20c0,-11 -4,-20 -10,-20c-5,0 -10,-15 -10,-34c0,-19 -5,-38 -10,-41c-13,-8 -10,-105 2,-105c4,0 8,-22 8,-50c0,-27 5,-50 10,-50c6,0 10,-16 10,-35c0,-19 5,-35 10,-35c6,0 10,-12 10,-27c0,-22 2,-25 10,-13c8,12 10,9 10,-13c0,-16 4,-26 10,-22c6,4 10,-8 10,-30c0,-22 4,-34 10,-30c6,4 10,-10 10,-34c0,-23 5,-41 10,-41c6,0 10,-11 10,-25c0,-14 6,-25 13,-25c11,0 12,12 6,53c-9,64 -39,157 -51,157c-4,0 -8,9 -8,19c0,11 -4,22 -8,25c-5,3 -14,31 -21,63c-7,32 -17,68 -22,81c-28,70 3,215 58,279c28,32 99,83 114,83c5,0 9,-53 9,-119c0,-108 2,-122 26,-167c34,-65 130,-183 159,-196c38,-17 74,10 154,116l74,98l6,82l6,81l18,-35c9,-19 21,-58 26,-86c9,-47 39,-115 62,-138c17,-19 9,-44 -26,-79l-35,-35l0,-95c0,-108 1,-107 -88,-107c-31,0 -65,-6 -74,-14c-21,-15 -42,-66 -28,-66c6,0 10,6 10,13c0,8 4,7 10,-3c8,-12 10,-9 10,13l0,27l95,0l95,0l0,124l0,124l29,7c16,3 40,3 55,-1c22,-5 26,-3 26,15c0,12 -4,21 -9,21c-5,0 -11,8 -15,18c-12,35 -73,132 -79,125c-4,-3 -7,21 -7,55c0,35 -4,62 -10,62c-5,0 -10,10 -10,23c0,12 -9,29 -20,37c-11,8 -20,20 -20,27c0,7 -4,13 -10,13c-5,0 -10,6 -10,14c0,12 -20,26 -36,26c-2,0 -4,-56 -4,-125c0,-121 -1,-127 -25,-149c-13,-13 -22,-26 -18,-29c3,-4 1,-7 -6,-7c-7,0 -10,-4 -6,-9c3,-5 -4,-12 -15,-16c-11,-3 -20,-13 -20,-21c0,-8 -4,-14 -10,-14c-5,0 -10,-5 -10,-10c0,-14 -46,-60 -60,-60c-15,0 -70,55 -70,69c0,6 -4,11 -10,11c-5,0 -10,7 -10,16c0,8 -4,12 -10,9c-5,-3 -10,1 -10,9c0,9 -4,16 -10,16c-5,0 -10,9 -10,19c0,11 -9,23 -20,26c-19,6 -20,15 -20,171c0,90 -3,163 -7,163c-5,-1 -20,-4 -36,-6z"/>
   <path id="svg_8" d="m525,516c-11,-8 -25,-12 -31,-9c-23,8 -23,-14 -1,-35c32,-30 47,-50 47,-62c0,-5 9,-10 20,-10c11,0 20,7 20,15c0,8 5,15 10,15c6,0 10,9 10,19c0,11 9,23 20,26c25,8 27,39 2,33c-10,-3 -23,1 -30,9c-16,17 -43,17 -67,-1z"/>
  </g>
  <line stroke-linecap="undefined" stroke-linejoin="undefined" id="svg_14" y2="3.31875" x2="54.92753" y1="17.52167" x1="18.40574" opacity="undefined" fill-opacity="null" stroke-opacity="null" stroke-dasharray="null" stroke-width="3" stroke="#000" fill="none"/>
  <line stroke-linecap="undefined" stroke-linejoin="undefined" id="svg_15" y2="17.52167" x2="95.21744" y1="33.17386" x1="55.50724" opacity="undefined" fill-opacity="null" stroke-opacity="null" stroke-dasharray="null" stroke-width="3" stroke="#000" fill="none"/>
  <line stroke="#000" stroke-linecap="undefined" stroke-linejoin="undefined" id="svg_16" y2="16.36225" x2="96.087" y1="2.15933" x1="54.34782" opacity="undefined" fill-opacity="null" stroke-opacity="null" stroke-dasharray="null" stroke-width="3" fill="none"/>
  <line stroke="#000" stroke-linecap="undefined" stroke-linejoin="undefined" id="svg_17" y2="17.52167" x2="15.21733" y1="2.44919" x1="56.08695" opacity="undefined" fill-opacity="null" stroke-opacity="null" stroke-dasharray="null" stroke-width="3" fill="none"/>
  <line stroke="#000" stroke-linecap="undefined" stroke-linejoin="undefined" id="svg_18" y2="17.52167" x2="14.92748" y1="33.46372" x1="56.66666" opacity="undefined" fill-opacity="null" stroke-opacity="null" stroke-dasharray="null" stroke-width="3" fill="none"/>
  <path id="svg_19" d="m54.63767,18.10138" opacity="NaN" fill-opacity="null" stroke-opacity="null" stroke-dasharray="null" stroke-width="3" stroke="#000" fill="none"/>
  <rect id="svg_20" height="10.4348" width="37.39135" y="11.4347" x="42.17389" fill-opacity="null" stroke-opacity="null" stroke-dasharray="null" stroke-width="3" stroke="#000" fill="none"/>
  <path d="m34.63765,14.62311c0,0.28986 1.02008,0.45165 1.73914,1.44928c0.37897,0.5258 0.80271,0.6676 1.15942,0.86957c1.03998,0.58883 1.96632,0.12176 2.89856,0.86957c0.50557,0.40556 0.49085,0.7127 0.86956,0.86957c0.26779,0.11092 0.89283,-0.19979 1.73914,0c0.63079,0.14891 1.44928,0.57971 2.89855,0.57971c0.28986,0 1.47202,0.22894 2.31884,0.57971c1.1976,0.49606 1.44928,0.57971 1.73914,0.86957c0.28985,0.28986 0.8923,0.5188 1.73913,0.86957c0.5988,0.24803 1.87212,1.07056 2.02899,1.44928c0.11092,0.26779 0.28986,0.57971 0.57971,0.57971c0.28985,0 0.86956,0.57971 1.15942,0.57971c0.28986,0 0.28986,0.28986 0.57971,0.28986c0.57971,0 0.81848,0.4308 1.44928,0.57971c0.2821,0.0666 0.88526,-0.16444 1.73913,0c1.53276,0.29518 1.82739,0.13602 2.89856,0.57971c0.75743,0.31374 1.44928,0.57971 2.31884,0.57971c1.15942,0 1.7612,0.11093 2.02899,0c0.37871,-0.15687 0.5925,-0.25397 1.44927,-0.57971c2.06338,-0.78449 3.79512,-1.10048 6.37682,-2.31884c0.58614,-0.27662 0.87732,-0.22326 1.15942,-0.28986c0.6308,-0.14891 0.78071,-0.42284 1.15942,-0.57971c0.26779,-0.11092 0.57971,0 0.86957,0c0.28986,0 0.58878,-0.21792 0.86957,-0.28985c9.92731,-2.54334 9.02067,-5.02721 8.69566,-5.50725c-1.75019,-2.58509 -5.73985,-2.15446 -7.53624,-2.89855c-0.84683,-0.35077 -1.15942,-0.57971 -2.02899,-0.86957c-0.86957,-0.28986 -1.73914,-0.86957 -2.31884,-0.86957c-0.28986,0 -0.78071,-0.42284 -1.15942,-0.57971c-0.26779,-0.11092 -0.86957,0 -2.02899,-0.57971c-0.57971,-0.28986 -0.95943,-0.09783 -1.73913,-0.57971c-0.34869,-0.21551 -1.13126,-0.35484 -1.73914,-0.57971c-1.12087,-0.41464 -2.14112,-0.55583 -2.89855,-0.86957c-1.33896,-0.55462 -2.33083,-0.24557 -3.47827,-0.57971c-0.88005,-0.25627 -1.45703,-0.22326 -1.73913,-0.28986c-0.6308,-0.14891 -4.03889,-1.78096 -4.63769,-2.02899c-0.84683,-0.35077 -1.44928,-0.57971 -2.02899,-0.57971c-0.28986,0 -1.49341,-0.22184 -2.02899,0c-0.37872,0.15687 -0.49085,0.7127 -0.86957,0.86957c-0.26779,0.11092 -0.49085,0.13299 -0.86956,0.28986c-0.53558,0.22185 -0.87239,0.23273 -1.44928,0.28986c-1.47078,0.14564 -2.09518,-0.04292 -2.89856,0.28986c-0.37871,0.15687 -0.56752,0.32777 -2.31884,0.86957c-2.01592,0.62365 -2.94268,0.64772 -3.47827,0.86957c-0.37872,0.15687 -0.95446,0.0849 -1.15942,0.28986c-0.20496,0.20496 -0.50631,0.39749 -1.73914,1.15942c-1.10267,0.68149 -1.94013,1.00255 -2.31884,1.15942c-0.53558,0.22184 -0.71718,0.04329 -0.86956,0.28986c-0.68149,1.10268 -1.97713,1.53586 -2.89856,2.02899c-0.51112,0.27354 -1.82403,0.37475 -2.02899,0.57971c-0.20496,0.20496 -0.86957,0.28986 -1.15942,0.57971c-0.57971,0.57971 -1.44928,0.86957 -1.73913,0.86957c-0.28986,0 -0.37475,0.0849 -0.57971,0.28986c-0.20496,0.20496 0,0.57971 0.28986,0.57971c0.28986,0 0.60178,-0.11092 0.86957,0c0.37871,0.15687 0.86957,0.57971 1.15942,0.57971c0.28986,0 0.57971,0.28986 0.86957,0.28986c0.28986,0 0.37475,0.0849 0.57971,0.28986c0.40992,0.40992 1.16718,0.22326 1.44928,0.28985c0.6308,0.14891 0.66461,0.37475 0.86957,0.57971c0.20496,0.20496 0.98901,-0.00912 2.02899,0.57971c0.71342,0.40393 0.78071,0.7127 1.15942,0.86957c0.26779,0.11092 0.44063,0.09382 0.86957,0.57971c0.69164,0.78348 1.21334,0.49059 1.73913,0.86957c0.33254,0.23968 0.52785,0.66629 1.44928,1.15942c0.25556,0.13677 0.40199,0.55583 1.15942,0.86957c0.53558,0.22185 0.9774,0.11163 2.02899,0.86957c0.33254,0.23968 0.55298,0.43369 1.73913,0.57971c0.28769,0.03542 0.73889,0.27686 1.73914,0.57971c0.55483,0.16799 0.90058,-0.26638 2.02899,0c0.63079,0.14891 0.7807,0.42284 1.15942,0.57971c0.26779,0.11092 1.15942,0 1.44928,0c0.57971,0 1.73913,0.28986 2.6087,0.28986c0.57971,0 1.24432,0.0849 1.44928,0.28986c0.20496,0.20496 0.86956,0 1.15942,0c0.57971,0 1.07056,0.13299 1.44928,0.28985c0.26779,0.11092 0.6646,0.0849 0.86956,0.28986c0.20496,0.20496 0.49482,0.37475 0.28986,0.57971c-0.40992,0.40992 -1.15942,0 -1.44928,0c-0.28986,0 -0.91286,-0.13747 -1.15942,-0.28986c-0.55134,-0.34075 -0.60178,-0.46879 -0.86956,-0.57971c-0.37872,-0.15687 -0.57971,-0.28985 -0.86957,-0.28985c-0.28986,0 -0.28986,-0.28986 -0.57971,-0.28986c-0.28986,0 -0.58747,0.0666 -0.86956,0c-0.6308,-0.14891 -5.3023,-0.37475 -5.50726,-0.57971c-0.20496,-0.20496 -3.76911,-1.42537 -4.05798,-1.44928c-1.75711,-0.14542 -2.61646,-0.22326 -2.89856,-0.28986c-0.63079,-0.14891 -2.6087,-1.15942 -2.89855,-1.15942c-0.57971,0 -0.86957,0 -0.86957,-0.28986c0,-0.28986 0,-0.57971 0,-0.86957c0,-0.28986 -0.02206,-0.46879 -0.28986,-0.57971c-0.37872,-0.15687 -0.57971,-0.57971 -1.15942,-0.57971c-0.28986,0 -0.52087,-0.07435 -0.86957,-0.28986c-0.77971,-0.48189 -1.53417,-0.37475 -1.73913,-0.57971c-0.20496,-0.20496 -0.28986,-0.28986 -0.57971,-0.28986c-0.28986,0 -0.81848,-0.4308 -1.44928,-0.57971c-0.5642,-0.13319 -0.95446,0.20496 -1.15942,0c-0.20496,-0.20496 -0.86957,-0.57971 -1.44928,-0.86957c-0.57971,-0.28986 -1.15942,-0.28985 -1.44928,-0.28985c-0.28986,0 -0.57971,-0.28986 -0.86957,-0.28986c-0.28986,0 0,0 0.28986,0c0.28985,0 0.57971,0 0.86957,0c0.28986,0 0.84284,-0.43369 2.02899,-0.57971c0.57537,-0.07083 1.15942,-0.57971 2.02899,-0.57971c0.57971,0 0.86957,-0.28986 1.44928,-0.28986c0.28986,0 0.63363,0.08912 1.15942,-0.28986c0.33254,-0.23968 0.95446,-0.37475 1.15942,-0.57971c0.20496,-0.20496 0.34377,-0.49059 0.86956,-0.86957c0.33254,-0.23968 0.49085,-0.7127 0.86957,-0.86957c0.26779,-0.11092 0.39769,-0.11162 1.44928,-0.86957c0.66508,-0.47937 1.03936,-0.45965 1.44928,-0.86957c0.20496,-0.20496 0.34377,-0.49059 0.86956,-0.86957c0.33254,-0.23968 0.82688,-0.62988 1.15942,-0.86957c0.5258,-0.37897 0.91369,-0.35786 1.44928,-0.57971c0.37872,-0.15687 0.63363,-0.20074 1.15942,-0.57971c0.33254,-0.23968 0.60177,-0.17893 0.86956,-0.28986c0.37872,-0.15687 0.60178,-0.17893 0.86957,-0.28986c0.37872,-0.15687 1.15942,-0.57971 2.31884,-0.57971c0.86956,0 1.44928,-0.28986 2.31884,-0.28986c0.28986,0 0.28986,-0.28986 0.57971,-0.28986c0.28985,0 0.57971,0 1.15942,0c0.28986,0 0.57971,0 1.15942,0c0.57971,0 0.81848,0.14094 1.44928,0.28986c0.56421,0.13319 0.86956,0 1.73913,0.28986c0.86957,0.28986 1.15942,0.28986 2.02899,0.28986c0.86957,0 1.73913,0.28986 2.6087,0.28986c0.28986,0 0.58345,-0.04643 0.86957,0c0.90477,0.14682 1.6318,0.18113 2.6087,0.86957c0.85427,0.60202 1.10834,1.01051 1.73914,1.15942c0.5642,0.13319 1.15942,0.28986 2.31884,0.86957c0.57971,0.28986 1.22078,0.49685 2.02899,1.15942c0.31701,0.25988 -0.04413,0.22185 -0.57971,0c-0.37872,-0.15687 -1.07056,-0.7127 -1.44928,-0.86957c-0.53558,-0.22185 -1.15942,-0.57971 -1.44927,-0.57971c-0.86957,0 -2.89856,0 -4.05798,0c-1.44928,0 -2.02899,0 -2.31884,0c-0.57971,0 -2.90073,0.27708 -4.63769,0.57971c-3.19258,0.55625 -5.51501,0.51312 -5.79711,0.57971c-0.6308,0.14891 -0.88079,0.15057 -1.73913,0.28986c-1.80954,0.29365 -2.93711,0.74478 -4.05798,1.15942c-0.60788,0.22487 -0.86956,0.57971 -0.86956,0.86957c0,0.28986 -0.28986,0.28986 -0.28986,1.15942c0,0.28986 -0.40992,0.7495 0,1.15942c0.20496,0.20496 0.87705,0.77671 1.44928,0.86957c0.90477,0.14682 2.31884,1.44928 2.6087,1.73913c0.57971,0.57971 1.45703,0.80297 1.73913,0.86957c0.6308,0.14891 2.3034,0.43442 4.34783,0.57971c1.44563,0.10274 3.44307,-0.72274 4.34783,-0.86957c0.57223,-0.09286 0.89163,-0.17893 1.15942,-0.28986c0.37872,-0.15687 0.49085,-0.7127 0.86956,-0.86957c0.26779,-0.11092 0.31192,-0.17893 0.57971,-0.28986c0.37872,-0.15687 0.58747,-0.22326 0.86957,-0.28986c1.26159,-0.29782 1.82293,-0.88368 3.18841,-1.44928c0.96554,-0.39994 1.79305,-0.78045 2.31885,-1.15942c0.66508,-0.47937 0.86956,-0.86957 0.86956,-1.15942l0.86957,0l0.28986,0l0.57971,0" id="svg_21" opacity="undefined" fill-opacity="null" stroke-opacity="null" stroke-dasharray="null" stroke-width="3" stroke="#000" fill="none"/>
  <path d="m39.85505,14.62311c0,0 32.46381,0.86957 33.04352,0.86957c0.57971,0 1.39839,-0.26148 1.73914,0.28986c0.15239,0.24657 0.30482,0.10414 1.44927,0.28986c1.80954,0.29365 4.10928,0.96962 5.50726,1.44928c1.22611,0.42069 2.6087,0.86957 2.89855,0.86957c0.28986,0 0.31823,-0.23897 0.86957,-0.57971c0.24657,-0.15239 0.28986,-0.28986 0.28986,-0.57971c0,-0.28986 0,-0.57971 0,-0.86957c0,-0.28986 -0.23877,-0.4308 -0.86957,-0.57971c-0.2821,-0.0666 -0.5797,0 -0.86956,0c-0.28986,0 -0.52863,-0.14094 -1.15942,-0.28986c-0.84631,-0.19979 -1.39819,-0.4308 -2.02899,-0.57971c-0.8463,-0.19978 -2.29211,-0.43369 -3.47826,-0.57971c-0.86305,-0.10625 -2.31884,-0.57971 -3.47826,-0.57971c-0.28986,0 -1.15942,-0.28986 -1.73914,-0.28986c-0.28986,0 -0.86957,-0.28986 -1.73913,-0.28986c-0.86957,0 -1.44928,0 -2.02899,0c-0.57971,0 -0.86957,0 -1.15942,0c-0.5797,0 -1.15942,0 -1.44927,0c-0.86957,0 -1.36042,-0.7127 -1.73914,-0.86957c-0.53558,-0.22185 -0.92348,0.08912 -1.44928,-0.28986c-0.33254,-0.23968 -0.95446,-0.0849 -1.15942,-0.28986c-0.20496,-0.20496 -0.52862,-0.4308 -1.15942,-0.57971c-0.56421,-0.13319 -0.82688,-0.05017 -1.15942,-0.28986c-1.05159,-0.75794 -1.72273,-0.62253 -3.18841,-1.15942c-0.86068,-0.31527 -1.15942,-0.28986 -1.44928,-0.28986c-0.28986,0 -0.88307,-0.24605 -3.76812,-1.15942c-0.87386,-0.27665 -1.44928,-0.28986 -1.73913,-0.28986c-0.28986,0 -0.86957,0 -1.15942,0c-0.86957,0 -1.32922,-0.12006 -1.73914,0.28986c-0.20496,0.20496 0,0.57971 -0.28986,0.57971c-0.28985,0 -0.40929,-0.00912 -1.44928,0.57971c-0.35671,0.20197 -0.42733,0.33315 -0.57971,0.57971c-0.68149,1.10267 -1.53417,0.37475 -1.73913,0.57971c-0.20496,0.20496 -1.47134,0.46879 -1.73913,0.57971c-0.37872,0.15687 -0.57971,0.28986 -0.86957,0.57971c-0.28985,0.28986 -0.81072,0.65406 -1.15942,0.86957c-0.77971,0.48189 -1.53417,0.37475 -1.73913,0.57971c-0.20496,0.20496 -0.31192,0.17893 -0.57971,0.28986c-0.37872,0.15687 -0.57971,0.57971 -0.86957,0.86957c-0.28986,0.28986 -0.7807,0.7127 -1.15942,0.86957c-0.26779,0.11092 -0.28986,0.28986 -0.57971,0.57971c-0.28986,0.28986 -0.49482,0.66461 -0.28986,0.86957c0.20496,0.20496 0.57971,0.57971 0.86957,0.57971c0.28986,0 0.28986,0.28986 0.57971,0.28986c0.28985,0 0.57971,0 0.86956,0c0.28986,0 0.57971,0 0.86957,0c0.28986,0 0.84975,0.31113 1.15942,0.57971c1.09486,0.94957 1.84697,1.27105 2.89856,2.02899c0.99763,0.71905 1.07056,1.29241 1.44928,1.44928c0.53558,0.22185 0.78071,0.42284 1.15942,0.57971c0.26779,0.11092 0.54451,0.14303 1.44928,0.28985c0.57223,0.09286 1.15942,0.57971 1.44928,0.57971c0.28986,0 0.60178,0.17893 0.86957,0.28986c0.37872,0.15687 0.62384,0.35786 1.15942,0.57971c0.37871,0.15687 0.57971,0.28986 0.86956,0.57971c0.28986,0.28985 0.28986,0.57971 0.57971,0.57971c0.28986,0 1.15942,0.28986 1.44928,0.57971c0.28986,0.28985 0.66461,0.37475 0.86957,0.57971c0.20496,0.20496 0.16979,0.16979 0.57971,0.57971c0.20496,0.20496 0.37475,0.08489 0.57971,0.28985c0.20496,0.20496 0.28986,0.28986 0.28986,0.57971c0,0.57971 0.49482,0.66461 0.28986,0.86957c-0.20496,0.20496 -1.89528,-1.3352 -2.6087,-1.73913c-1.03998,-0.58883 -1.33835,-0.60178 -1.44928,-0.86957c-0.15687,-0.37871 -0.37475,-0.37475 -0.57971,-0.57971c-0.20496,-0.20496 -0.28986,-0.28986 0,-0.28986c0.28986,0 0.49434,0.10035 1.15942,0.57971c1.05159,0.75794 1.53913,0.67753 2.31884,1.15942c0.34869,0.21551 0.37475,0.37475 0.57971,0.57971c0.20496,0.20496 1.15942,0 1.73914,0c0.28985,0 0.57971,0 0.86956,0c0.57971,0 1.02874,-0.27686 2.02899,-0.57971c0.27742,-0.084 0.84806,-0.14422 2.31884,-0.28986c1.15378,-0.11425 1.73913,0 2.02899,-0.28986c0.28986,-0.28986 0.81848,-0.4308 1.44928,-0.57971c0.2821,-0.06659 0.86956,-0.28986 0.57971,-0.28986c-0.28986,0 -0.28986,0.57971 -0.57971,0.86957c-0.57971,0.57971 -0.78071,0.7127 -1.15942,0.86957c-0.26779,0.11092 -0.57971,0 -1.15942,0c-0.28986,0 -0.57971,0 -0.86957,0c-0.28986,0 -0.28986,0.28986 -0.28986,0.57971c0,0.28986 0,0.57971 0,0.86957c0,0.28986 -0.26779,0.75864 0,0.86957c0.37872,0.15687 0.52882,-0.31823 0.86957,-0.86957c0.15239,-0.24657 0.53703,-0.34003 0.86956,-0.57971c0.52579,-0.37897 1.10853,-0.31823 1.44928,-0.86957c0.15239,-0.24656 0.35442,-0.49971 1.44928,-1.44928c0.92902,-0.80574 1.8037,-1.07942 2.89855,-2.02899c0.61935,-0.53716 2.0445,-1.02623 2.6087,-1.15942c0.6308,-0.14891 0.89794,-0.52882 1.44927,-0.86957c0.49313,-0.30478 0.78071,-0.13299 1.15942,-0.28985c0.53558,-0.22185 0.58746,-0.22326 0.86957,-0.28986c0.6308,-0.14891 0.90639,-0.48656 1.73914,-0.86957c1.53551,-0.70623 2.75485,-1.16972 4.05798,-2.02899c0.68443,-0.45131 1.44927,-1.15942 2.02898,-1.15942c0.28986,0 0.28986,0.28986 0.28986,0.57971c0,0.28986 0.20496,0.66461 0,0.86957c-0.20496,0.20496 -0.42284,0.201 -0.57971,0.57971c-0.11092,0.26779 0,0.57971 -0.28986,0.57971c-0.28986,0 -0.40199,-0.26597 -1.15942,-0.57971c-0.26779,-0.11092 -0.52863,-0.4308 -1.15942,-0.57971c-0.2821,-0.0666 -0.7127,-0.201 -0.86957,-0.57971c-0.11092,-0.26779 -0.6134,-1.28744 -3.18841,-0.86957c-0.90477,0.14682 -1.78326,0.06801 -2.31885,0.28986c-0.75743,0.31374 -0.87267,0.46751 -2.89855,0.57971c-2.62074,0.14515 -7.53935,0.46751 -9.56523,0.57971c-2.62073,0.14515 -4.34783,0.28986 -5.79711,0.28986c-1.15942,0 -2.31884,0 -2.6087,0c-0.57971,0 -4.34783,-0.28986 -4.92754,-0.28986c-1.44928,0 -2.89855,0 -3.47826,0c-0.28986,0 -0.86957,0 -1.15942,0c-1.15942,0 -1.67834,-0.57688 -3.76812,-0.86957c-0.28706,-0.0402 -0.7495,-0.40992 -1.15942,0c-0.20496,0.20496 0,0.57971 0,0.86957c0,0.57971 0.11092,0.89163 0,1.15942c-0.15687,0.37872 -0.28986,0.57971 -0.28986,0.28986c0,-0.28986 0,-0.57971 0,-0.86957c0,-0.28986 0,-0.57971 0,-0.86957c0,-0.28985 -0.15239,-0.623 0,-0.86957c0.34075,-0.55134 0.46879,-0.60177 0.57971,-0.86957c0.15687,-0.37871 0.28985,-0.57971 0.57971,-0.57971c0.28986,0 0.57971,-0.28986 0.86957,-0.57971c0.28986,-0.28986 0.19704,-0.82649 0.86957,-1.44928c0.87687,-0.81201 1.18148,-0.46879 1.44928,-0.57971c0.37872,-0.15687 0.44903,-0.56672 1.44928,-0.86957c0.27742,-0.084 0.62384,0.22185 1.15942,0c0.37872,-0.15687 1.27156,-0.55583 2.02899,-0.86957c0.80337,-0.33277 1.24432,-0.0849 1.44928,-0.28986c0.20496,-0.20496 0.36423,-0.41126 1.73913,-0.86957c0.27498,-0.09166 0.37475,-0.0849 0.57971,-0.28986c0.20496,-0.20496 0.28986,-0.57971 0.57971,-0.57971c0.28986,0 0.66461,0.20496 0.86956,0c0.20496,-0.20496 -0.02206,-0.46879 -0.28985,-0.57971c-0.37872,-0.15687 -1.00256,-0.37872 -1.15942,0c-0.11092,0.26779 -0.34377,0.78045 -0.86957,1.15942c-0.33254,0.23968 -0.87732,0.80297 -1.15942,0.86957c-0.6308,0.14891 -1.15942,0.28986 -1.44928,0.57971c-0.28986,0.28986 -2.05105,0.46879 -2.31884,0.57971c-0.37872,0.15687 -1.36042,0.7127 -1.73914,0.86957c-0.53558,0.22184 -0.57971,0.57971 -0.57971,0.86957c0,0.57971 0,0.86957 0,1.44928c0,0.57971 -0.28986,1.73913 -0.28986,2.02899c0,0.57971 -0.28986,0.86957 -0.28986,1.15942c0,0.86957 -0.06801,1.49341 -0.28986,2.02899c-0.15687,0.37872 -0.623,0.13747 -0.86956,0.28986c-0.55134,0.34075 -0.57971,0.57971 -1.15942,0.57971c-0.28986,0 -0.57971,0 -0.86957,0c-0.28985,0 -0.57971,0 -0.86956,0c-0.28986,0 -0.86957,0 -1.15942,0c-0.28986,0 -0.57971,0 -0.86956,0c-0.28986,0 -0.57971,0 -0.86957,0c-0.28986,0 -0.28986,-0.28986 0,-0.28986c0.57971,0 0.81905,-0.23539 4.34783,-0.86957c2.58337,-0.46427 4.94811,-0.76607 8.11595,-1.44928c2.33649,-0.50391 3.9745,-0.86424 5.50726,-1.15942c0.56925,-0.10963 0.61874,-0.2352 1.44928,-0.86957c0.72843,-0.55637 2.24249,-1.03686 4.63769,-2.02899c1.69366,-0.70154 2.38744,-0.85325 2.89856,-0.57971c0.92143,0.49313 2.09651,1.62021 3.18841,2.31884c1.56336,1.00029 2.02899,1.44928 1.73914,1.44928c-0.28986,0 -1.24493,-0.85363 -3.76812,-1.44928c-2.25681,-0.53276 -4.34783,0 -5.50725,0c-0.86957,0 -1.15942,0 -1.73913,0c-0.57971,0 -1.73914,0 -3.76812,0c-2.6087,0 -4.85413,-0.76193 -6.08696,0c-0.55134,0.34074 -0.57971,0.57971 -0.57971,0.86957c0,0.28986 -0.37475,0.49482 -0.57971,0.28986c-0.20496,-0.20496 0,-0.57971 0,-0.86957c0,-0.28986 0.23877,-0.72066 0.86956,-0.86957c0.2821,-0.0666 2.02899,-1.15942 3.76812,-2.02899c0.57971,-0.28986 0.89794,-0.81868 1.44928,-1.15942c0.7397,-0.45716 2.31884,-0.57971 2.6087,-0.57971c0.28986,0 1.15942,0 1.44928,0c0.28986,0 0.57971,0 1.15942,0c0.57971,0 1.80532,0.33277 2.6087,0c0.37872,-0.15687 0.57971,-0.28986 1.15942,-0.28986c0.28986,0 0.57971,0 0.86956,0c0.86957,0 1.44928,0 1.73914,0c0.28986,0 0.86956,0 1.15942,0c0.28986,0 0.57971,0.28986 1.15942,0.28986c0.28985,0 0.28985,0.28986 0.28985,0.57971c0,0.28986 0,0.57971 0,0.86957c0,0.28986 -0.28985,0.28986 -0.86956,0.28986c-0.86957,0 -1.18149,0.11092 -1.44928,0c-0.37872,-0.15687 -0.37475,-0.37475 -0.57971,-0.57971c-0.20496,-0.20496 -0.28986,-0.28986 -0.57971,-0.28986c-0.28986,0 -1.11174,-0.57797 -3.76812,-0.86957c-2.01687,-0.2214 -6.06898,-0.43429 -7.8261,-0.57971c-1.15547,-0.09563 -1.53417,-0.20496 -1.73913,0c-0.20496,0.20496 0,0.57971 0,1.15942c0,0.28986 0.28986,2.31884 0.28986,6.66667c0,1.15942 0,1.44928 0,2.02899c0,0.28985 -0.40992,0.7495 0,1.15942c0.20496,0.20496 0.57971,0.28986 1.15942,0.28986c0.28986,0 1.39819,0.72066 2.02899,0.86957c0.2821,0.06659 0.57971,0.28986 0.86956,0.28986c0.28986,0 0.7495,-0.12006 1.15942,0.28986c0.40992,0.40992 0.45964,0.45965 0.86956,0.86957c0.20496,0.20496 0.28986,0.28986 0.57971,0.28986c0.57971,0 0.49085,-0.42284 0.86957,-0.57971c0.26779,-0.11092 2.33382,-0.39399 3.47826,-0.57971c0.90477,-0.14682 1.73913,-0.57971 2.31884,-0.57971c0.28986,0 0.86957,-0.28985 1.15942,-0.28985c0.86957,0 2.02899,-0.86957 2.89856,-0.86957c0.28986,0 0.86957,-0.28985 1.15942,-0.28985c0.28986,0 0.57971,0 0.86957,0c0.86956,0 1.44927,0 1.73913,0c0.28986,0 -0.02206,0.11092 -0.28986,0c-0.75743,-0.31374 -1.36041,-1.00255 -1.73913,-1.15942c-0.26779,-0.11092 -0.28986,-0.28986 -0.57971,-0.28986c-0.28986,0 -1.15942,-0.28986 -1.73914,-0.28986c-0.86956,0 -1.15942,0 -1.44928,0c-0.28986,0 -0.57971,0 -1.15942,0c-0.28986,0 -0.57971,0 -0.86957,0c-0.28986,0 -0.49482,-0.37475 -0.28986,-0.57971c0.20496,-0.20496 0.57971,0 0.86957,0c0.57971,0 0.86956,0 1.15942,0c0.28986,0 0.57971,0 1.15942,0c0.86956,0 2.31884,-0.28986 3.18841,-0.28986c0.5797,0 0.86956,0 1.44927,0c0.28986,0 0.86957,0 1.15942,0c0.28986,0 0.86957,0 1.15942,0c0.28986,0 0.57971,0 0.86957,0c0.28985,0 1.15942,0 1.44927,0c0.28986,0 0.57971,0 1.73914,0c0.57971,0 1.15942,0 1.73913,0c0.28986,0 0.86957,0 1.15942,0c0.57971,0 0.57971,-0.28986 0.86957,-0.28986c0.28986,0 0.53703,-0.05017 0.86957,-0.28985c0.52579,-0.37897 1.47727,-0.44456 3.18841,-0.86957c0.88958,-0.22095 1.73914,-0.28985 2.02899,-0.28985c0.28986,0 0.86956,-0.28986 1.44927,-0.28986l0.28986,0l0.28986,0" id="svg_22" opacity="undefined" fill-opacity="null" stroke-opacity="null" stroke-dasharray="null" stroke-width="3" stroke="#000" fill="none"/>
  <line stroke="#000" stroke-linecap="null" stroke-linejoin="null" id="svg_27" y2="54.33331" x2="46.52172" y1="83.60871" x1="46.52172" opacity="undefined" fill-opacity="null" stroke-opacity="null" stroke-dasharray="null" stroke-width="3" fill="none"/>
  <line stroke="#000" stroke-linecap="null" stroke-linejoin="null" id="svg_28" y2="54.33331" x2="46.52172" y1="83.60871" x1="46.52172" opacity="undefined" fill-opacity="null" stroke-opacity="null" stroke-dasharray="null" stroke-width="3" fill="none"/>
  <line stroke-linecap="null" stroke-linejoin="null" id="svg_29" y2="82.73915" x2="49.71013" y1="54.62317" x1="50.28984" opacity="undefined" fill-opacity="null" stroke-opacity="null" stroke-dasharray="null" stroke-width="3" stroke="#000" fill="none"/>
  <line stroke="#000" stroke-linecap="null" stroke-linejoin="null" id="svg_30" y2="89.40582" x2="66.23189" y1="89.69568" x1="45.07244" opacity="undefined" fill-opacity="null" stroke-opacity="null" stroke-dasharray="null" stroke-width="3" fill="none"/>
  <line stroke-linecap="null" stroke-linejoin="null" id="svg_31" y2="102.44932" x2="56.37681" y1="89.69568" x1="46.23187" opacity="undefined" fill-opacity="null" stroke-opacity="null" stroke-dasharray="null" stroke-width="3" stroke="#000" fill="none"/>
  <line stroke="#000" stroke-linecap="null" stroke-linejoin="null" id="svg_32" y2="102.73917" x2="54.92753" y1="90.27539" x1="65.07247" opacity="undefined" fill-opacity="null" stroke-opacity="null" stroke-dasharray="null" stroke-width="3" fill="none"/>
  <path d="m52.89854,94.62322c0,0 -0.12412,-0.70242 -1.44928,-2.31885c-0.77965,-0.95102 -1.36438,-1.36437 -1.15942,-1.15942c0.20496,0.20496 0.49085,0.13299 0.86957,0.28986c0.26779,0.11092 0.86957,0 1.73913,0c0.86957,0 1.24432,-0.20496 1.44928,0c0.20495,0.20496 0.28985,0.28985 1.44928,0.28985c0.28986,0 0.86957,0 1.15942,0c0.28986,0 0.57971,0 0.86957,0c0.28986,0 0.28986,-0.28985 0.86957,-0.28985c0.28985,0 0.57971,-0.28986 0.86956,-0.28986c0.28986,0 0.53703,-0.34003 0.86957,-0.57971c0.52579,-0.37897 1.15942,-0.57971 1.73913,-0.57971l0,0.28986" id="svg_33" opacity="undefined" fill-opacity="null" stroke-opacity="null" stroke-dasharray="null" stroke-width="3" stroke="#000" fill="none"/>
  <polyline stroke-linecap="round" id="svg_34" points="62.753626842058935,90.85509991424107 62.753626842058935,90.85509991424107 " opacity="undefined" fill-opacity="null" stroke-opacity="null" stroke-dasharray="null" stroke-width="3" stroke="#000" fill="none"/>
  <line stroke-linecap="null" stroke-linejoin="null" id="svg_35" y2="91.14496" x2="38.40577" y1="61.28984" x1="38.11591" opacity="undefined" fill-opacity="null" stroke-opacity="null" stroke-dasharray="null" stroke-width="3" stroke="#000" fill="none"/>
  <line stroke-linecap="null" stroke-linejoin="null" id="svg_36" y2="91.72467" x2="38.40577" y1="113.46383" x1="55.50724" opacity="undefined" fill-opacity="null" stroke-opacity="null" stroke-dasharray="null" stroke-width="3" stroke="#000" fill="none"/>
  <line stroke-linecap="null" stroke-linejoin="null" id="svg_37" y2="112.88411" x2="56.37681" y1="90.56524" x1="74.05799" opacity="undefined" fill-opacity="null" stroke-opacity="null" stroke-dasharray="null" stroke-width="3" stroke="#000" fill="none"/>
  <line stroke-linecap="null" stroke-linejoin="null" id="svg_38" y2="44.76808" x2="57.53623" y1="32.59415" x1="29.7101" opacity="undefined" fill-opacity="null" stroke-opacity="null" stroke-dasharray="null" stroke-width="3" stroke="#000" fill="none"/>
  <line stroke="#000" stroke-linecap="null" stroke-linejoin="null" id="svg_39" y2="43.3188" x2="57.53623" y1="31.14488" x1="81.88409" opacity="undefined" fill-opacity="null" stroke-opacity="null" stroke-dasharray="null" stroke-width="3" fill="none"/>
  <path d="m81.55556,33.66667c0,0.22222 0,0.44444 0,0.66666c0,0.66667 0,1.11111 0,1.33334c0,0.44444 0,0.66666 0,1.11111c0,0.44444 0,0.88889 0,1.11111c0,0.22222 0,0.44444 0,0.66667c0,0.44444 0,0.66666 0,0.88889c0,0.22223 0,0.44445 0,0.66667c0,0.22222 0,0.44445 0,0.66667c0,0.22222 0.15714,0.50953 0,0.66666c-0.15714,0.15714 -0.50953,-0.15714 -0.66667,0c-0.15714,0.15714 -0.22222,0.22223 -0.66666,0.22223c-0.22222,0 -0.44444,0 -0.88889,0c-2,0 -2.44445,0.22222 -3.11111,0.22222c-1.11111,0 -1.55556,0 -2.66666,0c-0.44444,0 -1.33334,0 -2.44444,0c-0.66667,0 -0.88889,0 -1.33334,0c-0.22222,0 -0.44444,0 -0.66666,0c-0.22223,0 -1.11111,0 -1.77778,0c-0.44445,0 -0.50954,0.06509 -0.66667,0.22222c-0.15714,0.15714 -0.47417,-0.03306 -1.55555,0.22222c-0.48362,0.11417 -0.92272,0.27436 -1.33334,0.44445c-0.29035,0.12027 -0.26139,0.5525 0.22222,0.66666c0.21628,0.05106 0.44444,0 0.66666,0c0.22222,0 0.43261,-0.11083 2,-0.22222c1.10832,-0.07877 1.33334,0 1.55556,0c0.44444,0 0.66666,0 0.88889,0c0.22222,0 1.04298,0.32418 1.33333,0.44445c0.20531,0.08504 0.66667,0.44444 1.11111,0.66666c0.44444,0.22223 0.62749,0.33028 1.11111,0.44445c0.21628,0.05106 0.44445,0 0.66667,0c0.22222,0 0.44444,-0.22222 0.88889,-0.44445c0.44444,-0.22222 0.708,-0.37612 1.11111,-0.66666c0.25495,-0.18376 0.44444,-0.22223 0.44444,-0.44445c0,-0.22222 -0.15714,-0.50953 0,-0.66666c0.15714,-0.15714 0.48578,-0.59835 0.88889,-0.88889c0.5099,-0.36752 0.50954,-0.73175 0.66667,-0.88889c0.15714,-0.15714 0.4904,-0.18059 0.88889,-0.66667c0.50797,-0.61963 1.13287,-1.51654 1.55556,-1.77778c0.18903,-0.11683 0.28731,-0.06509 0.44444,-0.22222c0.15714,-0.15714 0.37936,-0.28731 0.22222,-0.44444c-0.15714,-0.15714 -0.44444,0 -1.33333,0c-0.44445,0 -0.66667,0 -1.33334,0c-0.22222,0 -0.44444,0 -1.11111,0c-0.44444,0 -0.66666,0 -1.11111,0c-0.22222,0 -0.44444,0 -0.66667,0c-0.22222,0 -0.61803,0.50729 -0.88889,0.66666c-1.39434,0.82043 -2.14389,0.88278 -3.11111,1.11111c-0.21628,0.05106 -0.66666,0.22223 -0.44444,0.22223c0.22222,0 0.88889,0 1.11111,0c0.22222,0 0.66666,0 0.88889,0c0.22222,0 0.44444,0 0.66667,0c0.22222,0 0.44444,0 0.66666,0c0.22222,0 0.44444,0 0.66666,0c0.22222,0 0.57462,0.13017 0.88889,0.44444c0.15714,0.15714 0.22222,0.22222 0.22222,0.44445c0,0.22222 0.10539,0.25541 0.22222,0.44444c0.52248,0.84538 1.29431,0.46619 1.55556,0.88889c0.11683,0.18903 0,0.44444 0.22222,0.44444c0.22222,0 0.3594,0.01691 0.44444,0.22223c0.12026,0.29035 0.42251,0.5704 0.22222,0.66666c-1.28248,0.61639 -2.66666,-1.77778 -3.11111,-2c-0.44445,-0.22222 -0.47828,-0.27436 -0.88889,-0.44444c-0.29034,-0.12027 -0.1541,-0.5464 -0.44444,-0.66667c-0.20531,-0.08504 -0.34425,-0.43448 -1.11111,-0.66667c-0.42537,-0.12879 -0.66666,-0.44444 -1.11111,-0.44444c-0.22222,0 -0.50953,-0.15714 -0.66667,0c-0.15714,0.15714 -0.13718,0.23914 -0.22222,0.44444c-0.12026,0.29035 -0.35941,0.23914 -0.44444,0.44445c-0.12026,0.29035 -0.4452,0.20389 -0.66666,0.22222c-1.34712,0.11149 -3.54862,0.55546 -6.22223,0.66667c-1.55421,0.06465 -2.66666,0 -3.77777,0l-0.44445,0" id="svg_40" opacity="undefined" fill-opacity="null" stroke-opacity="null" stroke-dasharray="null" stroke-width="3" stroke="#000" fill="none"/>
  <path d="m46.88889,43.44444c0,-0.22222 -0.20759,-0.25429 -0.66667,-0.44444c-0.64923,-0.26892 -2.20173,-0.99916 -3.11111,-1.11111c-0.66167,-0.08146 -1.33333,-0.22222 -1.77778,-0.22222c-0.22222,0 -0.9058,-0.13718 -1.11111,-0.22223c-0.29035,-0.12027 -0.28731,-0.28731 -0.44444,-0.44444c-0.15714,-0.15714 -0.37632,-0.32418 -0.66667,-0.44444c-0.41061,-0.17008 -0.85616,-0.03847 -1.11111,-0.22223c-0.40311,-0.29055 -0.95398,-0.28731 -1.11111,-0.44444c-0.15714,-0.15714 -0.44445,-0.22222 -0.66667,-0.22222c-0.44444,0 -0.44444,-0.22223 -0.66666,-0.22223c-0.22223,0 -0.44445,0 -0.66667,0c-0.44445,0 -0.73175,-0.15714 -0.88889,0c-0.15714,0.15714 0,0.44445 0,0.66667c0,0.22222 0,0.44445 0,0.66667c0,0.22222 -0.15714,0.50953 0,0.66666c0.15714,0.15714 0.40527,0.10806 0.88889,0.22223c0.21628,0.05106 0.67261,0.17117 0.88889,0.22222c0.48361,0.11417 0.44444,0.44444 0.66666,0.44444c0.22223,0 0.66666,0 0.88889,0.22223c0.22223,0.22223 0.44445,0.22222 0.66667,0.22222c0.22222,0 0.59854,0.10196 0.88889,0.22222c0.20531,0.08504 0.70514,-0.03273 0.88889,0.22222c0.29055,0.40311 0.44444,0.44445 0.66666,0.44445c0.22223,0 0.66667,0 0.88889,0c0.22223,0 0.44445,0 0.88889,0c0.44445,0 0.66667,0 1.33334,0c0.22222,0 0.63394,0.40598 0.88889,0.22222c0.80622,-0.58109 -0.708,-1.48723 -1.11111,-1.77778c-0.25495,-0.18375 -0.46136,-0.13718 -0.66666,-0.22222c-0.29035,-0.12027 -0.37632,-0.32418 -0.66667,-0.44445c-0.20531,-0.08504 -0.50953,-0.06508 -0.66667,-0.22222c-0.15714,-0.15714 -0.10196,-0.37632 -0.22222,-0.66666c-0.08504,-0.20531 0,-0.44445 0,-0.66667c0,-0.22222 0,-0.44445 -0.44444,-0.44445c-0.22223,0 -0.46136,-0.08504 -0.66667,0c-0.29035,0.12027 -0.76862,0.59854 -0.88889,0.88889c-0.08504,0.20531 -0.06509,0.50953 -0.22222,0.66667c-0.15714,0.15714 -0.37632,0.10196 -0.66667,0.22222c-0.20531,0.08504 -0.59854,0.10196 -0.88889,0.22222c-0.20531,0.08504 -0.6724,-0.07119 -1.11111,0c-0.69365,0.11257 -1.11111,0.22223 -1.33333,0.22223c-0.22222,0 -0.22222,0.22222 -0.22222,0.44444c0,0.22222 0,0.44445 0,0.66667c0,0.22222 0,0.44444 0,0.66666c0,0.22223 0,0.44445 0.22222,0.44445c0.22222,0 0.44444,0 0.66667,0l0.22222,0l0.22222,0" id="svg_41" opacity="undefined" fill-opacity="null" stroke-opacity="null" stroke-dasharray="null" stroke-width="3" stroke="#000" fill="none"/>
  <path d="m78.22222,38.55556c-0.22222,0 -0.44444,0 -0.66666,0c-0.22222,0 -0.44444,0 -0.66667,0c-0.22222,0 -0.44444,0 -0.66666,0l-0.22222,0" id="svg_42" opacity="undefined" fill-opacity="null" stroke-opacity="null" stroke-dasharray="null" stroke-width="3" stroke="#000" fill="none"/>
  <polyline stroke-linecap="round" id="svg_43" points="38.222222222222214,41.888888888888886 38.222222222222214,41.888888888888886 " opacity="undefined" fill-opacity="null" stroke-opacity="null" stroke-dasharray="null" stroke-width="3" stroke="#000" fill="none"/>
  <path d="m44.88889,42.11111c0.22222,0 0.88889,0.44445 1.11111,0.44445c0.22222,0 0.44444,0 0.44444,0.22222l0.22223,0" id="svg_44" opacity="undefined" fill-opacity="null" stroke-dasharray="null" stroke-width="3" stroke="#ffffff" fill="none"/>
  <path d="m58.44444,37.88889c0.22223,0 0.44445,0 0.66667,0c0.22222,0 0.44445,0 0.66667,0c0.22222,0 0.44444,0 0.66666,0c0.22223,0 0.22223,0.22222 0.22223,0.44444c0,0.22223 -0.22223,0.22223 -0.44445,0.22223c-0.22222,0 -0.44444,0 -0.66666,0c-0.22223,0 -0.44445,0 -0.44445,0.22222c0,0.22222 0,0.44444 0,0.22222c0,-0.22222 0.22222,-0.22222 0.44445,-0.22222c0.22222,0 0.44444,-0.22222 0.66666,-0.22222c0.22222,0 0.44445,-0.22223 0.22222,-0.22223c-0.22222,0 -0.44444,0 -0.66666,0c-0.22222,0 -0.28731,0.06509 -0.44445,0.22223c-0.15714,0.15714 -0.22222,0.22222 -0.22222,0.44444l0,0.22222" id="svg_45" opacity="undefined" fill-opacity="null" stroke-dasharray="null" stroke-width="3" stroke="#ffffff" fill="none"/>
  <path d="m68.44444,34.11111c-0.44444,0.22222 -0.68358,0.13718 -0.88889,0.22222c-0.5807,0.24053 -0.88889,0.44445 -1.33334,0.66667c-0.88889,0.44444 -1.29417,0.77472 -1.77778,0.88889c-0.43256,0.10211 -0.63394,0.03847 -0.88889,0.22222c-0.40311,0.29055 -0.54984,0.25541 -0.66667,0.44445c-0.26124,0.42269 -0.87197,0.3594 -0.66667,0.44444c0.29035,0.12027 0.30726,0.01691 0.22222,0.22222c-0.12027,0.29035 -0.28731,0.28731 -0.44444,0.44445c-0.15714,0.15714 -0.06509,0.50953 -0.22222,0.66666c-0.31427,0.31427 -0.66667,0.22223 -0.66667,0.44445c0,0.22222 -0.23914,0.13718 -0.44444,0.22222c-0.29035,0.12027 -0.24398,0.40543 -0.66667,0.66667c-0.18903,0.11683 -0.50953,-0.15714 -0.66667,0c-0.15714,0.15714 0,0.44444 0,0.66666c0,0.22223 -0.22222,0.22223 -0.44444,0.22223c-0.22222,0 -0.44445,0 -0.44445,0.22222c0,0.22222 -0.15714,0.50953 0,0.66666c0.15714,0.15714 0.28731,0.06509 0.44445,0.22223c0.15714,0.15714 0.44444,0 0.66667,0c0.22222,0 0.44444,0 0.66666,0c0.22222,0 0.44445,0 0.66667,-0.22223c0.22222,-0.22222 0.40543,-0.24397 0.66667,-0.66666c0.11683,-0.18903 0.06509,-0.28731 0.22222,-0.44445c0.15714,-0.15714 0,-0.44444 0,-0.88889c0,-0.22222 0.15714,-0.50953 0,-0.66666c-0.31427,-0.31427 -0.44445,-0.22222 -0.66667,-0.22222c-0.22222,0 -0.22222,-0.22223 -0.44444,-0.22223c-0.22223,0 -0.44445,0 -0.66667,0c-0.22222,0 -0.44444,0 -0.66667,0c-0.44444,0 -0.37632,0.32418 -0.66666,0.44445c-0.20531,0.08504 -0.22223,0.22222 -0.22223,0.44444c0,0.44445 -0.06509,0.50953 -0.22222,0.66667c-0.15714,0.15714 0,0.44444 0,0.66667c0,0.22222 0,0.44444 0.22222,0.44444c0.22223,0 0.1541,0.32418 0.44445,0.44444c0.20531,0.08504 0.57462,-0.31427 0.88889,0c0.15714,0.15714 0.22222,0.22223 0.44444,0.22223c0.22222,0 0.44445,0 0.66667,0c0.22222,0 0.40543,-0.02176 0.66667,-0.44445c0.11683,-0.18903 0.10196,-0.37632 0.22222,-0.66666c0.08504,-0.20531 0,-0.44445 0,-0.66667l0,-0.22222l0,-0.22223" id="svg_46" opacity="undefined" fill-opacity="null" stroke-dasharray="null" stroke-width="3" stroke="#ffffff" fill="none"/>
  <path id="svg_47" d="m-40.23722,67.46903l0.56913,0l0.17587,-0.54067l0.17587,0.54067l0.56913,0l-0.46044,0.33415l0.17588,0.54067l-0.46044,-0.33416l-0.46044,0.33416l0.17588,-0.54067l-0.46044,-0.33415z" opacity="undefined" fill-opacity="null" stroke-dasharray="null" stroke-width="3" stroke="#000000" fill="none"/>
  <line stroke-linecap="null" stroke-linejoin="null" id="svg_48" y2="46.11111" x2="52.44444" y1="31.22222" x1="81.55556" opacity="undefined" fill-opacity="null" stroke-dasharray="null" stroke-width="3" stroke="#000000" fill="none"/>
  <path id="svg_49" d="m28.52833,46.18778l0,-16.22222l32,16.22222l-32,0z" opacity="undefined" fill-opacity="null" stroke-opacity="null" stroke-dasharray="null" stroke-width="3" stroke="#000000" fill="none"/>
  <path stroke="#000000" transform="rotate(-90 68.39714813232423,38.252426147460945) " id="svg_50" d="m60.29838,52.7778l0,-29.05073l16.19753,29.05073l-16.19753,0z" opacity="undefined" fill-opacity="null" stroke-opacity="null" stroke-dasharray="null" stroke-width="3" fill="none"/>
  <path d="m45.11111,41.22222c0.22222,0 0.30819,0.20391 0.88889,0.44445c0.20531,0.08504 0.06509,0.28731 0.22222,0.44444c0.15714,0.15714 0.37632,0.10196 0.66667,0.22222c0.20531,0.08504 0.41745,0.10966 1.11111,0.22223c0.21935,0.03559 0.44444,0 0.44444,0.22222c0,0.22222 -0.22222,0.22222 -0.44444,0.22222c-0.44444,0 -0.66882,-0.03082 -0.88889,0c-1.60216,0.22439 -1.77778,0.44444 -2,0.44444c-0.22222,0 -0.22222,-0.22222 -0.22222,0c0,0.22223 0.22222,0.22223 0.44444,0.22223l0,0.22222" id="svg_51" opacity="undefined" fill-opacity="null" stroke-opacity="null" stroke-dasharray="null" stroke-width="3" stroke="#000000" fill="none"/>
  <path d="m41.33333,39c0,0 0.46188,0.17552 1.11111,0.44444c0.45908,0.19016 0.73175,0.50953 0.88889,0.66667c0.15714,0.15714 0.70022,-0.12564 1.11111,0.44445c0.12994,0.18027 0.22223,0.44444 0.22223,0.66666c0,0.22222 0.33597,0.08679 0.88889,0.66667c0.89419,0.93778 0.50953,1.62064 0.66666,1.77778c0.15714,0.15714 0.1541,0.32418 0.44445,0.44444c0.41061,0.17008 1.11111,0 1.33333,0l0,0.22222" id="svg_52" opacity="undefined" fill-opacity="null" stroke-opacity="null" stroke-dasharray="null" stroke-width="3" stroke="#000000" fill="none"/>
  <rect id="svg_54" height="30.29412" width="4.11765" y="23.79411" x="97.79412" opacity="undefined" fill-opacity="null" stroke-opacity="null" stroke-dasharray="null" stroke-width="3" stroke="#000" fill="none"/>
  <path id="svg_56" d="m19.17337,112.96427l0,-1.49l1.49,1.49l-1.49,0z" opacity="undefined" fill-opacity="null" stroke-opacity="null" stroke-dasharray="null" stroke-width="3" stroke="#000" fill="none"/>
  <path d="m36.0294,62.02941c-0.58823,0 -0.67438,0.08614 -0.88235,0.29412c-0.20797,0.20797 -0.58824,0 -0.58824,0.29412c0,0.29412 -0.31651,0.18156 -0.58823,0.29412c-0.38428,0.15918 -0.38026,0.38026 -0.58823,0.58823c-0.20797,0.20797 -0.49807,0.42906 -0.88235,0.58823c-0.27173,0.11256 -0.58823,0.29412 -0.88235,0.29412c-0.29412,0 -0.38026,0.08614 -0.58823,0.29411c-0.20798,0.20798 -0.08614,0.38026 -0.29412,0.58824c-0.20797,0.20797 -0.49807,0.13494 -0.88235,0.29411c-0.27173,0.11256 -0.38026,0.08615 -0.58824,0.29412c-0.20797,0.20797 -0.20395,0.42905 -0.58823,0.58823c-0.27173,0.11256 -0.61062,0.18156 -0.88235,0.29412c-0.38428,0.15917 -0.67438,0.67438 -0.88235,0.88235c-0.20797,0.20797 -0.49807,0.13494 -0.88235,0.29412c-0.27173,0.11256 -0.38026,0.08615 -0.58823,0.29412c-0.20797,0.20797 -0.38026,0.08614 -0.58824,0.29411c-0.20798,0.20798 0.12183,0.46641 -0.29412,0.88235c-0.20797,0.20797 -0.20395,0.42905 -0.58823,0.58823c-0.54346,0.22511 -0.58824,0.29412 -0.58824,0.58823c0,0.29412 -0.08615,0.38026 -0.29412,0.58823c-0.20797,0.20797 -0.08614,0.38026 -0.29412,0.58824c-0.20797,0.20797 -0.18156,0.31651 -0.29412,0.58823c-0.15918,0.38428 -0.31651,0.47568 -0.58824,0.58823c-0.38428,0.15918 -0.42906,0.49807 -0.58824,0.88235c-0.11255,0.27173 -0.08614,0.67438 -0.29412,0.88235c-0.20797,0.20797 -0.08614,0.38026 -0.29412,0.58823c-0.20797,0.20797 -0.47568,0.3165 -0.58824,0.58823c-0.15917,0.38428 -0.17229,0.46641 -0.58824,0.88235c-0.20797,0.20797 -0.08614,0.38026 -0.29412,0.58823c-0.20797,0.20797 -0.17229,0.17229 -0.58824,0.58823c-0.20797,0.20797 -0.08615,0.38026 -0.29412,0.58823c-0.20797,0.20797 -0.29412,0.29412 -0.29412,0.58823c0,0.29412 -0.08615,0.38027 -0.29412,0.58824c-0.20797,0.20797 0,0.58823 -0.29412,0.58823l0,0.29411l0,0.29412" id="svg_57" opacity="undefined" fill-opacity="null" stroke-opacity="null" stroke-dasharray="null" stroke-width="3" stroke="#000" fill="none"/>
  <path d="m17.49999,110.26471c0,0.29412 -0.20798,0.67438 0,0.88235c0.20797,0.20797 0.29412,0.29411 0.29412,0.58823c0,0.29412 0.29412,0.29412 0.29412,0.58823c0,0.29412 0,0.58823 0,0.88235c0,0.58823 0,0.88235 0,1.17647c0,0.58824 0.29412,0.58824 0.29412,0.88235c0,0.29412 0.24248,0.32291 0.58824,0.88235c0.15463,0.25019 0,0.58823 0,0.88235c0,0.29411 -0.20798,0.67438 0,0.88235c0.20797,0.20797 0.08614,0.38026 0.29412,0.58823c0.20797,0.20797 0.38026,0.08614 0.58824,0.29411c0.20798,0.20798 0,0.58823 0,0.88235c0,0.29412 0.29412,0.29412 0.29412,0.88235c0,0.29411 0.24248,0.32291 0.58824,0.88235c0.15462,0.25019 -0.20798,0.96849 0,1.17647c0.20797,0.20797 0.29412,0.58823 0.29412,0.88235c0,0.29411 0.08615,0.38026 0.29412,0.58823c0.20798,0.20798 0,0.58823 0,0.88235c0,0.29411 0.29412,0.29411 0.29412,0.88235c0,0.29412 0.08615,0.38027 0.29412,0.58824c0.20797,0.20797 0.08614,0.38026 0.29412,0.58823c0.20797,0.20797 0.38026,0.08614 0.58823,0.29411c0.20798,0.20798 0.29412,0.29412 0.29412,0.58824c0,0.29411 0.08615,0.38026 0.29412,0.58823c0.20797,0.20798 0.08615,0.38028 0.29412,0.58824c0.20797,0.20798 0.58824,0.29411 0.58824,0.58824c0,0.29411 0.29412,0.58823 0.29412,0.88234c0,0.29413 0.08615,0.38026 0.29412,0.58824c0.20797,0.20796 0.08615,0.38026 0.29412,0.58824c0.20797,0.20796 0,0.58823 0,0.88235c0,0.29411 0.02239,0.47568 0.29412,0.58823c0.38428,0.15918 0.29412,0.58824 0.29412,0.88235c0,0.58824 0.08615,0.67439 0.29412,0.88235c0.20797,0.20798 0.42906,0.20395 0.58824,0.58824c0.11255,0.27173 0,0.58823 0,0.88234c0,0.29413 0.08615,0.38028 0.29412,0.58824c0.20797,0.20798 0.29412,0.29411 0.29412,0.58824c0,0.29411 0.29412,0.29411 0.29412,0.58823c0,0.29411 0,0.58824 0,0.88235c0,0.29411 0,0.58824 0,0.88235c0,0.29411 0.08615,0.38026 0.29412,0.58824c0.20797,0.20796 0,0.88234 0,0.58823l0,-0.29411l0,-0.58824" id="svg_58" opacity="undefined" fill-opacity="null" stroke-opacity="null" stroke-dasharray="null" stroke-width="3" stroke="#000" fill="none"/>
  <path d="m64.2647,135.85295c0,0.29411 0,0.58823 0,0.88235c0,0.29411 -0.29412,0.29411 -0.29412,0.88235c0,0.29411 0.20797,0.67438 0,0.88234c-0.20797,0.20798 -0.29412,0.29413 -0.29412,0.58824c0,0.29411 0,0.88235 0,1.17647c0,0.29413 0,0.58824 0,0.88235c0,0.29411 0.20797,0.67439 0,0.88235c-0.20797,0.20798 -0.29412,0.29411 -0.29412,0.58824l-0.29412,0l0,0.29411l0,0.29411" id="svg_59" opacity="undefined" fill-opacity="null" stroke-opacity="null" stroke-dasharray="null" stroke-width="3" stroke="#000" fill="none"/>
  <path d="m31.32352,68.79411c0,2.35294 0,3.82353 0,7.94118c0,3.2353 0.44102,7.93118 0.58823,11.17648c0.13328,2.93816 0.33237,5.00796 0.58823,9.11765c0.14735,2.36668 0.01689,4.45748 0.58824,7.05882c0.39905,1.81686 0.78833,5.31016 1.17647,10.00001c0.14756,1.78295 0.88149,3.49569 1.17647,7.35294c0.26912,3.51913 0.07579,6.47961 0.29412,9.11765c0.14756,1.78296 0.29412,3.82353 0.29412,5.88235c0,1.4706 0,2.64706 0,3.82353c0,1.4706 0,2.94118 0,5.58824c0,0.58823 0,0.88235 0,0.58823c0,-0.29411 -0.06757,-0.89023 0,-1.17647c0.1511,-0.64006 0.30775,-1.16344 0.58823,-1.47058c1.54905,-1.69626 3.21587,-2.74484 7.35294,-8.82353c2.52599,-3.71149 3.68578,-5.44618 5.29412,-6.76471c0.8201,-0.67232 1.98434,-1.57981 3.23529,-2.35294c1.11889,-0.69151 1.66103,-1.16839 2.94118,-1.47059c0.28625,-0.06757 0.56111,-0.44006 1.76471,-0.58823c0.87574,-0.10781 1.47059,0 1.47059,0.29412c0,0.29411 0.13515,0.89809 0,1.47059c-0.1511,0.64008 -0.79501,1.5387 -2.64706,3.82352c-1.96877,2.4288 -3.4435,3.64136 -4.70588,5.29413c-1.43933,1.88445 -2.16064,2.56042 -2.64706,3.23529c-0.38454,0.53352 -0.9685,0.7962 -1.17647,0.58823c-0.83189,-0.83189 1.00484,-3.64525 3.23529,-6.76469c4.3815,-6.12781 6.98111,-8.30454 8.82353,-10.29413c0.56523,-0.61037 0.28983,-0.67518 -0.58823,-0.58823c-1.49241,0.14778 -6.97036,2.56831 -11.76471,4.41177c-3.47248,1.3352 -6.60647,2.48918 -9.70588,5.29411c-1.54202,1.39551 -2.02403,2.21416 -1.76471,2.35295c1.86995,1.00076 5.49706,-3.71669 14.41176,-7.94118c8.44679,-4.00275 13.83355,-6.78332 16.47059,-10c1.34464,-1.64019 1.47059,-2.35294 1.17647,-2.05882c-0.58823,0.58823 -1.47059,1.47059 -3.23529,3.2353l-4.11765,4.11765l-0.58823,0.58823l-0.88235,0.88235" id="svg_62" opacity="undefined" fill-opacity="null" stroke-opacity="null" stroke-dasharray="null" stroke-width="7" stroke="#000" fill="none"/>
  <path d="m58.97058,127.91177c-7.35294,5.88235 -10.89328,7.16284 -12.05883,8.23529c-0.48397,0.44531 -1.08631,0.72318 -1.47059,0.88235c-0.27173,0.11255 -0.88235,0.58824 -1.17647,0.88235c-0.58824,0.58823 -0.9685,0.67438 -1.17647,0.88235c-0.20797,0.20796 -0.20798,0.67438 0,0.88235c0.20797,0.20798 0.49806,-0.13495 0.88235,-0.29413c0.27173,-0.11256 0.60397,-0.15897 1.17647,-0.29411c0.64007,-0.15109 1.48863,-0.83076 3.23529,-1.47058c1.48724,-0.54478 2.76672,-0.64359 4.70588,-1.76471c1.27313,-0.73605 2.27176,-1.5361 3.23529,-2.64706c0.54506,-0.62845 0.82725,-1.2373 1.47059,-1.76471c0.8201,-0.67232 1.52263,-1.82329 3.52941,-2.94118c0.81252,-0.45262 1.55673,-1.09032 1.76471,-0.88235c0.20797,0.20798 -0.39594,0.20749 -0.88235,0.88235c-0.38455,0.53354 -0.76979,0.90474 -0.88235,1.17648c-0.15918,0.38428 -0.65725,1.22124 -0.88235,1.76469c-0.15918,0.38429 -0.29412,0.88235 -0.29412,1.4706c0,0.29411 -0.13494,0.79219 -0.29412,1.17647c-0.33767,0.81519 0.11255,1.49298 0,1.76471c-0.15918,0.38428 -0.58825,0.88235 -0.29412,0.88235c0.29413,0 0.5366,-0.32291 0.88235,-0.88235c0.15462,-0.25018 0.31651,-0.47569 0.58823,-0.58824c0.38428,-0.15918 0.99178,-0.70149 2.05882,-1.47058c0.33744,-0.24321 0.58824,-0.29413 0.88235,-0.58824c0.58824,-0.58823 1.17647,-0.88235 1.17647,-0.58823c0,0.58823 -0.71143,0.71143 -1.17647,1.17647c-0.46503,0.46504 -0.64294,0.79193 -1.17647,1.17647c-0.33743,0.24321 -0.49806,0.42906 -0.88235,0.58824c-0.27173,0.11256 -0.63216,0.13948 -0.88235,0.29411c-0.55944,0.34575 -0.58824,1.17647 -0.88235,1.47058c-0.29412,0.29413 -0.18157,0.90474 -0.29412,1.17647c-0.15918,0.38429 -0.08615,0.67439 -0.29412,0.88235c-0.20797,0.20798 -0.069,0.63303 -0.29412,1.17648c-0.15918,0.38428 -0.43713,0.53639 -0.58823,1.17647c-0.06757,0.28624 -0.29412,0.58823 -0.58824,0.58823c-0.29412,0 -0.58823,0 -1.17647,0c-1.76471,0 -2.67066,-0.20273 -3.52941,0c-0.64008,0.15111 -1.17647,0.29413 -1.47059,0.29413c-0.29412,0 -0.58823,0 -0.88235,0c-0.29412,0 -0.88235,0 -1.17647,0c-0.29412,0 -0.65581,-0.00787 -0.58823,-0.29413c0.1511,-0.64006 0.93706,-1.08604 1.47059,-1.47058c0.33743,-0.24321 0.51562,-0.39197 0.88235,-0.58824c1.32225,-0.70766 1.9722,-0.98416 2.64706,-1.47058c0.53353,-0.38455 0.61703,-0.83072 1.17647,-1.17647c0.25019,-0.15463 0.58823,0 0.88235,-0.29413c0.29411,-0.29411 0.58825,-0.88234 1.47059,-1.76469c0.29412,-0.29413 0.72318,-0.49808 0.88235,-0.88235c0.11256,-0.27174 0.66451,-0.8149 1.17647,-1.4706c1.05542,-1.35176 1.82957,-2.30331 2.94118,-3.82353c0.62593,-0.85602 1.22738,-1.42727 1.47059,-1.7647c0.38454,-0.53353 0.50638,-1.1877 1.76471,-2.35294c0.48254,-0.44685 1.23908,-0.90511 2.05882,-2.35294c0.59749,-1.05527 1.63784,-2.58317 2.35294,-4.70589c0.38715,-1.14922 1.17648,-2.05882 2.35294,-3.82353c0.58823,-0.88235 1.50397,-1.74126 2.94118,-3.82352c1.20477,-1.74551 1.60553,-3.14513 1.76471,-3.52941c0.33767,-0.81519 -0.02238,-1.58315 -0.29412,-1.47059c-1.15285,0.47752 -2.41771,3.17496 -3.23529,4.11765c-0.96353,1.11096 -2.76814,1.60591 -4.41177,3.52941c-0.42724,0.49999 -0.88235,0.88235 -1.76471,1.76471c-0.58823,0.58823 -1.41713,0.76675 -2.64706,1.7647c-0.82348,0.66817 -2.18334,1.30242 -3.82353,2.64706c-0.965,0.79111 -2.24274,1.88636 -3.52941,2.94118c-0.8201,0.67233 -1.47058,1.17648 -2.35294,2.05883c-0.29412,0.29411 -0.58823,0.29411 -0.58823,-0.29412c0,-0.58823 0.06901,-0.92713 0.29412,-1.47059c0.15918,-0.38428 0.72318,-1.38042 0.88235,-1.76471c0.11255,-0.27173 0.52842,-2.38033 1.76471,-5c0.56136,-1.18952 2.10275,-2.49243 2.35294,-2.64706c0.55944,-0.34576 0.56069,-0.91277 0.88235,-1.17647c0.8201,-0.67232 1.25191,-1.11677 1.47059,-1.47059c0.97795,-1.58235 1.63632,-2.85368 2.35294,-4.41177c0.38864,-0.84499 1.06392,-1.49298 1.17648,-1.76471c0.15917,-0.38428 0.47569,-0.61062 0.58823,-0.88235c0.15917,-0.38428 0.88235,-0.88235 1.17647,-1.17648c0.29412,-0.29411 0.49781,-0.93707 0.88235,-1.47059c0.2432,-0.33743 2.27342,-3.59672 3.52941,-5c0.83221,-0.9298 1.26261,-1.67857 1.47059,-1.47059c0.20798,0.20798 -0.02239,0.47568 -0.29412,0.58823c-0.38428,0.15918 -0.06901,0.63302 -0.29411,1.17648c-0.31835,0.76856 -0.4894,1.31139 -1.47059,3.52941c-0.42901,0.9698 -1.32303,2.04058 -1.47059,3.82353c-0.02426,0.29311 -0.14302,0.53639 -0.29412,1.17647c-0.06757,0.28625 -0.29411,0.88235 -0.58823,1.17647c-0.29412,0.29412 -0.29412,1.17648 -0.58823,1.47059c-0.29412,0.29412 -0.6442,0.55338 -1.17648,1.47059c-0.3301,0.56882 -1.02537,1.12463 -1.17647,1.76471c-0.06757,0.28625 -0.10182,0.50161 -0.58823,1.17647c-0.38454,0.53352 -0.12366,0.90759 -0.29412,1.47059c-0.3073,1.01495 -0.88235,1.47059 -0.88235,1.76471l0,-0.29412" id="svg_63" opacity="undefined" fill-opacity="null" stroke-opacity="null" stroke-dasharray="null" stroke-width="7" stroke="#000" fill="none"/>
  <polyline stroke-linecap="round" id="svg_64" points="46.911759059780366,113.20588720985305 46.911759059780366,113.20588720985305 " opacity="undefined" fill-opacity="null" stroke-opacity="null" stroke-dasharray="null" stroke-width="7" stroke="#000" fill="none"/>
  <path d="m29.55882,94.38235c0.29412,0.29412 0.29412,0.58823 0.29412,1.17648c0,0.88235 0,1.7647 0,2.64706c0,2.05882 0,3.23529 -0.29412,4.70588c-0.29412,1.47059 -1.0283,3.79641 -1.17647,5c-0.17968,1.45957 -0.58823,2.94118 -0.29412,2.94118c0.29411,0 0,-0.58823 0,-0.88235c0,-0.29412 0.03896,-0.58953 0,-1.17648c-0.29477,-4.44104 -1.02926,-9.99 -1.17647,-13.23529c-0.0933,-2.05672 0,-5.29412 0,-7.64706c0,-1.47059 0,-2.94118 0,-3.52941c0,-0.88235 0,-1.47059 0,-2.05882c0,-1.17647 0,-2.64706 0,-3.52941c0,-2.05882 0.14656,-2.62881 0.29412,-4.41177c0.02426,-0.29312 0.18156,-1.49298 0.29412,-1.76471c0.15918,-0.38428 0.20395,-0.72318 0.58824,-0.88235c0.27173,-0.11255 0.72318,0.09016 0.88235,-0.29412c0.11255,-0.27174 0.20395,-0.42906 0.58824,-0.58823c0.27173,-0.11255 0.62304,-0.15534 0.88235,-0.29412c0.93498,-0.50039 1.0173,-1.0863 1.17647,-1.47059c0.11255,-0.27173 0.20395,-0.42905 0.58824,-0.58823c0.27173,-0.11256 0.40667,0.31651 0.29412,0.58823c-0.15918,0.38428 -0.4978,0.64294 -0.88235,1.17648c-0.24321,0.33743 -0.47568,0.61062 -0.58823,0.88235c-0.15918,0.38428 -0.58824,0.58824 -0.88235,0.88235c-0.29412,0.29412 -0.5961,0.52066 -0.88235,0.58823c-0.64007,0.1511 -0.79218,1.0173 -1.17647,1.17648c-0.27173,0.11256 -0.38026,0.08614 -0.58824,0.29411c-0.20798,0.20798 -0.12366,0.61348 -0.29412,1.17648c-0.3073,1.01495 -1.26135,2.31419 -1.76471,3.52941c-0.35593,0.85928 -0.42906,1.38042 -0.58824,1.7647c-0.11256,0.27173 -0.29412,0.29412 -0.29412,0.88235c0,0.29412 -0.13494,0.49807 -0.29412,0.88235c-0.11255,0.27174 -0.04244,0.86298 -0.29412,1.47059c-0.35593,0.85928 -0.29412,2.05882 -0.29412,4.41177c0,1.47059 0,2.94118 0,3.82352c0,0.29412 -0.10781,1.77132 0,2.64706c0.14817,1.20359 0.29412,2.94118 0.29412,3.82352c0,0.88235 -0.04375,2.39228 0.29412,3.82353c0.1511,0.64008 0.49401,2.06642 0.58824,2.64706c0.14898,0.91808 0.88235,2.05883 1.17647,3.2353c0.29412,1.17647 0.58824,2.94118 0.58824,3.82353c0,0.29411 0.34503,0.83904 0.58824,1.17647c0.76909,1.06705 1.76471,3.2353 1.76471,4.41177c0,0.58823 0.47569,0.90474 0.58824,1.17647c0.15917,0.38428 0.58823,1.17648 0.88235,1.76471l0,0.58823l0.29412,0.88235l0.29412,0" id="svg_65" opacity="undefined" fill-opacity="null" stroke-opacity="null" stroke-dasharray="null" stroke-width="7" stroke="#000" fill="none"/>
  <path d="m31.32352,115.26471c0,0.29412 0,0.58823 0,0.88235c0,0.29412 0,0.88235 0,1.76471c0,0.58823 0,1.47058 0,1.7647c0,0.29412 0,0.58823 0,1.17647c0,0.29412 0,0.58824 0,0.88235c0,1.17648 0,2.05882 0,2.94118c0,0.29412 0,0.58823 0,1.17647c0,0.29412 0,0.88235 0,1.17648c0,0.29411 0,0.58823 0,0.88235c0,0.29411 -0.29412,0.29411 -0.29412,0.58823c0,0.58824 0,1.76471 0,2.35295c0,0.29411 0,0.58823 0,1.17647c0,0.29411 0,0.88235 0,1.17647c0,0.88235 0,1.17647 0,1.4706c0,0.29411 0,0.58823 0,0.88235c0,0.58823 0,0.88234 0,1.47058c0,0.58824 0,1.17647 0,1.47058c0,0.29413 0,0.58824 0,0.88235c0,0.29413 0,0.58824 0,1.17648c0,0.29411 0,0.58823 0,0.88234l0,0.29413" id="svg_66" opacity="undefined" fill-opacity="null" stroke-opacity="null" stroke-dasharray="null" stroke-width="7" stroke="#000" fill="none"/>
  <path d="m22.79411,79.38235c0,0 0,0.29412 0,0.58823c0,0.29412 -0.29412,0.29412 -0.29412,0.88235c0,0.29412 0,0.58823 0,0.88235c0,0.29411 -0.13494,0.49807 -0.29412,0.88235c-0.22511,0.54346 0,0.88235 0,1.17647c0,0.29411 0,0.88235 0,1.47059c0,0.29411 0,0.58823 0,0.88235c0,0.29411 0.20797,0.67438 0,0.88235c-0.20797,0.20797 -0.29412,0.29412 -0.29412,0.58824c0,0.29411 -0.29412,0.58823 -0.29412,0.88235c0,0.29412 0,0.58824 0,1.17648c0,0.29411 -0.29412,1.17647 -0.29412,1.47059c0,0.88235 0,1.7647 0,2.64706c0,0.29412 0,0.58823 0,1.17647c0,0.29412 0,0.88235 0,1.17648c0,0.29411 0,0.88235 0,1.17647c0,0.29412 0,0.88235 0,1.17647c0,0.58824 0,1.47059 0,1.76471c0,0.58823 0,1.47059 0,1.76471c0,0.58823 0,1.47059 0,1.7647c0,0.58823 0,1.17647 0,1.47059c0,0.29412 0.29412,0.58823 0.29412,0.88235c0,0.29411 0.29412,0.29411 0.29412,0.58823c0,0.29412 0.14302,0.53639 0.29412,1.17647c0.06758,0.28625 0,0.58824 0,0.88235c0,0.29412 0.29412,0.58823 0.29412,1.17648c0,0.29411 0.14302,0.53639 0.29412,1.17647c0.06757,0.28625 0.29412,0.88235 0.29412,1.17647c0,0.29412 0,0.88235 0,1.17648c0,0.29411 0.29412,0.29411 0.29412,0.58823c0,0.29411 0.13494,0.49807 0.29412,0.88235c0.11255,0.27173 0.13494,0.49807 0.29412,0.88235c0.11256,0.27173 0.29412,0.58824 0.29412,0.88235c0,0.29412 0.29412,0.58823 0.29412,0.88235c0,0.29412 0.29412,0.88235 0.29412,1.17647c0,0.58823 -0.20797,1.26262 0,1.47059c0.20797,0.20797 0.29412,0.58823 0.29412,0.88235c0,0.58823 0.29412,0.88235 0.29412,1.17647c0,0.29412 0,0.58824 0.29412,0.88235c0.29412,0.29412 0.08614,0.67438 0.29412,0.88235c0.20797,0.20797 0.18157,0.31651 0.29412,0.58823c0.15917,0.38428 0.58823,0.88235 0.58823,1.17647c0,0.29412 0.29412,0.58824 0.29412,1.17648c0,0.29411 -0.11256,0.61063 0,0.88235c0.15918,0.38428 0.43713,0.53639 0.58823,1.17647c0.13515,0.57251 0,0.88235 0,1.47058c0,0.29413 0.29412,0.58824 0.29412,0.88235c0,0.58824 0,0.88235 0,1.17648l0,0.29411l0.29412,0" id="svg_67" opacity="undefined" fill-opacity="null" stroke-opacity="null" stroke-dasharray="null" stroke-width="7" stroke="#000" fill="none"/>
  <path d="m27.79411,73.20589c0,0.29411 -0.08614,0.38026 -0.29412,0.58823c-0.20797,0.20797 -0.31651,0.18156 -0.58824,0.29411c-0.38428,0.15918 -0.46641,0.46641 -0.88235,0.88235c-0.20798,0.20798 -0.18156,0.61062 -0.29412,0.88235c-0.15917,0.38428 -0.58824,0.58823 -0.58824,0.88235c0,0.29411 -0.02239,0.47569 -0.29412,0.58823c-0.38428,0.15917 -0.58824,0.58823 -0.58824,0.88235c0,0.29411 -0.29412,0.29411 -0.58824,0.58823c-0.29412,0.29411 -0.18156,0.61063 -0.29412,0.88235c-0.15918,0.38428 -0.29412,0.58823 -0.58824,0.58823c-0.29412,0 -0.08614,0.38026 -0.29412,0.58823c-0.20797,0.20797 -0.22654,0.30199 -0.29412,0.58823c-0.1511,0.64008 -0.58824,0.88235 -0.58824,1.17648c0,0.29411 0,0.58823 0,1.17647c0,0.29411 -0.29412,0.29411 -0.29412,0.58823c0,0.29412 -0.14302,0.53639 -0.29412,1.17647c-0.06758,0.28625 -0.29412,0.58824 -0.29412,1.17648c0,0.29411 0,0.58823 0,0.88235c0,0.29411 -0.29412,0.58823 -0.29412,0.88235c0,0.29412 -0.13494,0.49808 -0.29412,0.88235c-0.11256,0.27173 -0.13494,0.49807 -0.29412,0.88235c-0.11255,0.27173 -0.13494,0.49807 -0.29412,0.88235c-0.11255,0.27173 -0.13494,0.49807 -0.29412,0.88235c-0.22511,0.54346 0,0.88235 0,1.47059c0,0.29412 0,0.88235 0,1.17648c0,0.29411 0,0.58823 0,0.88235c0,0.29411 0,0.58823 0,0.88235c0,0.29412 0,0.58824 0,0.88235c0,0.29412 0,0.58823 0,0.88235c0,0.29411 0,0.58823 0,0.88235c0,0.29411 0,0.58823 0,0.88235c0,0.29412 0,0.58824 0,1.17648c0,0.29411 0,0.58823 0,1.17647c0,0.29412 0,0.58823 0,0.88235c0,0.29412 0,0.58823 0,0.88235c0,0.58823 0,0.88235 0,1.17647c0,0.29412 0,0.58823 0,0.88235c0,0.58823 0,0.88235 0,1.17647l0,0.58823l0,0.29412" id="svg_68" opacity="undefined" fill-opacity="null" stroke-opacity="null" stroke-dasharray="null" stroke-width="7" stroke="#000" fill="none"/>
  <path d="m25.73529,78.5c-0.29412,0 -0.38026,0.08614 -0.58824,0.29412c-0.20797,0.20797 -0.58824,0.29411 -0.88235,0.29411c-0.29412,0 -0.38026,0.08615 -0.58824,0.29412c-0.20798,0.20798 -0.29412,0.29412 -0.29412,0.58823c0,0.29412 -0.08615,0.38026 -0.29412,0.58823c-0.20797,0.20797 -0.08614,0.38026 -0.29412,0.58824c-0.20797,0.20797 -0.67438,0.67438 -0.88235,0.88235c-0.20798,0.20798 -0.29412,0.58824 -0.29412,0.88235c0,0.29412 -0.29412,0.29412 -0.29412,0.58823c0,0.29412 -0.08614,0.67438 -0.29412,0.88235c-0.20797,0.20797 -0.27898,0.38197 -0.58824,0.88235c-0.34576,0.55944 -0.67438,0.38026 -0.88235,0.58823c-0.20798,0.20798 -0.14302,0.53639 -0.29412,1.17647c-0.06758,0.28625 -0.58824,0.29412 -0.58824,0.58824c0,0.29411 -0.29412,0.58823 -0.29412,1.17647c0,0.29412 0,0.58823 0,0.88235c0,0.29411 0,0.58823 0,0.88235c0,0.29412 0,0.58824 0,0.88235l0,0.88235" id="svg_69" opacity="undefined" fill-opacity="null" stroke-opacity="null" stroke-dasharray="null" stroke-width="7" stroke="#000" fill="none"/>
  <path d="m77.79411,77.91177c0,0.29412 0,0.88235 0,2.35294c0,1.47059 0,2.64706 0,3.23529c0,0.29412 0,1.17648 0,1.47059c0,0.58823 0,1.17648 0,1.47059c0,0.29412 0.29412,1.76471 0.29412,2.35294c0,1.17647 0,2.05882 0,2.94118c0,0.88235 0,1.7647 0,2.05882c0,0.29412 0,0.88235 0,1.17647c0,0.58824 -0.43713,1.12464 -0.58823,1.76471c-0.47301,2.00375 -0.73418,4.38464 -0.88235,5.58823c-0.07187,0.58382 -0.43713,1.12464 -0.58823,1.76471c-0.06757,0.28625 -0.72013,1.41343 -1.17648,2.64706c-0.42073,1.13735 -0.88235,1.76471 -0.88235,2.05882c0,0.29412 -0.29412,0.88235 -0.29412,1.17648l0,0.29411l0,0.29412l0,-0.29412" id="svg_70" opacity="undefined" fill-opacity="null" stroke-opacity="null" stroke-dasharray="null" stroke-width="7" stroke="#000" fill="none"/>
  <path d="m83.67647,103.79412c-0.29412,0.29412 -0.69765,0.40738 -1.76471,1.17647c-1.34973,0.97283 -2.19543,2.19543 -3.23529,3.2353c-1.03986,1.03986 -1.68519,1.5379 -2.94118,2.94118c-0.5548,0.61987 -1.00555,1.00555 -1.47059,1.47059c-0.93008,0.93008 -1.44304,0.91277 -1.7647,1.17647c-0.8201,0.67232 -1.11677,0.66367 -1.47059,0.88235c-0.79118,0.48898 -1.14893,0.61865 -1.47059,0.88235c-1.64018,1.34464 -2.35295,1.76469 -4.11765,3.52941c-0.88235,0.88235 -1.51376,1.43037 -2.05882,2.05882c-0.96353,1.11095 -1.47058,1.47059 -1.76471,1.76471c-0.58823,0.58823 -0.83425,0.71557 -1.76471,2.35294c-1.24155,2.18482 -2.94118,6.4706 -3.23529,7.94118l-0.29412,0.58824" id="svg_72" opacity="undefined" fill-opacity="null" stroke-opacity="null" stroke-dasharray="null" stroke-width="7" stroke="#000" fill="none"/>
  <path d="m58.67647,121.14706c-1.17647,-0.58823 -6.11091,-2.76123 -9.11765,-4.41177c-2.30606,-1.2659 -4.28427,-2.68661 -5.29412,-3.52941c-1.12905,-0.94228 -1.47059,-1.17647 -1.47059,-1.47059c0,-0.58823 -0.76878,-0.9697 -1.47059,-1.7647c-0.43525,-0.49304 -1.32735,-1.64529 -1.76471,-2.35294c-0.48898,-0.79118 -0.9475,-1.41746 -1.17647,-1.76471c-0.8719,-1.32228 -1.01019,-3.2797 -1.76471,-3.82352c-0.2386,-0.17197 -0.81478,-0.00787 -0.88235,-0.29412c-0.1511,-0.64008 -0.4978,-1.23118 -0.88235,-1.76471c-0.24321,-0.33743 -0.29412,-0.58823 -0.29412,-1.17647l0,-0.29412l-0.29412,-0.29411" id="svg_73" opacity="undefined" fill-opacity="null" stroke-opacity="null" stroke-dasharray="null" stroke-width="7" stroke="#000" fill="none"/>
  <path d="m34.2647,93.5c0,0.58823 -0.11255,0.90474 0,1.17647c0.31835,0.76857 1.0261,2.61917 1.47059,5.29412c0.43658,2.62732 1.16839,4.30809 1.47059,5.58823c0.13515,0.57249 0.46162,2.09794 0.88235,3.2353c0.45635,1.23363 0.82054,2.08189 1.17647,2.94118c0.25168,0.6076 0.73337,2.0231 0.88235,2.94117c0.04711,0.29032 0.08614,0.96851 0.29412,1.17648c0.20797,0.20797 0.0076,0.49401 0.58824,0.58823c0.91807,0.14899 2.35294,1.17647 3.52941,2.35294c0.58823,0.58823 0.88235,0.58823 1.17647,0.58823c0.29412,0 0.58824,-0.29412 0.58824,-0.58823c0,-0.29412 -0.29412,-0.29412 -0.58824,-0.88235c-0.29412,-0.58823 -0.29412,-1.17647 -0.29412,-1.76471c0,-0.29411 -0.08615,-0.67438 -0.29412,-0.88235c-0.20797,-0.20797 -0.58823,0 -0.88235,0c-0.29412,0 -0.5364,-0.14302 -1.17647,-0.29412c-0.28625,-0.06757 -0.64294,-0.09042 -1.17647,0.29412c-0.33743,0.2432 -0.88235,1.17647 -0.88235,1.47059c0,0.29411 -0.08615,0.38026 -0.29412,0.58823c-0.20797,0.20797 -0.34883,0.20369 -0.88235,0.58823c-0.33743,0.24321 -0.47569,0.90474 -0.58824,1.17647c-0.15918,0.38428 -1.20526,1.71307 -1.76471,2.05882c-0.25019,0.15462 -0.18156,0.31651 -0.29412,0.58824c-0.6367,1.53713 -1.35484,1.33491 -1.76471,2.05882c-0.59749,1.05528 -0.50415,1.82697 -1.17647,2.64706c-0.2637,0.32167 -0.08615,0.67439 -0.29412,0.88235c-0.20797,0.20798 -0.55925,0.29555 -0.58823,0.58824c-0.14778,1.4924 -0.29412,2.35294 -0.29412,2.64705c0,0.58824 0.09043,0.93706 -0.29412,1.4706c-0.24321,0.33743 -0.29412,1.17647 -0.29412,1.47058c0,0.29411 -0.29412,0.29411 -0.29412,0.58824c0,0.58823 -0.29412,0.88235 -0.29412,1.17647c0,0.29411 0,0.58824 0,0.88235l0,-0.29411" id="svg_74" opacity="undefined" fill-opacity="null" stroke-opacity="null" stroke-dasharray="null" stroke-width="7" stroke="#000" fill="none"/>
  <path d="m32.79411,90.26471c0,0.29411 0.74097,1.04652 1.47059,2.05882c0.38454,0.53352 0.82055,1.19954 1.17647,2.05882c0.25168,0.6076 0.65049,0.79827 1.47059,1.47059c0.64333,0.5274 1.49298,1.06392 1.76471,1.17648c0.38428,0.15917 0.33889,0.36313 0.88235,0.58823c0.76857,0.31835 1.06391,1.19886 1.17647,1.47059c0.15918,0.38428 0.58824,1.17647 1.17647,1.7647c0.29412,0.29412 0.52643,1.19955 0.88235,2.05882c0.25168,0.60761 0.98162,1.26765 1.47059,2.05882c0.43735,0.70765 0.32291,1.12483 0.88235,1.47059c0.25019,0.15462 0.71143,0.41731 1.17647,0.88235c0.46504,0.46504 1.47058,0.58824 2.05882,1.17648c0.29412,0.29411 0.93832,0.8475 1.47059,1.7647c0.3301,0.56882 0.9702,0.82973 1.47059,1.76471c0.27756,0.51863 0.18156,0.90474 0.29412,1.17647c0.47753,1.15285 1.76471,1.17647 2.05882,1.76471l0.58824,0.58823l0,0.29411" id="svg_75" opacity="undefined" fill-opacity="null" stroke-opacity="null" stroke-dasharray="null" stroke-width="7" stroke="#000" fill="none"/>
  <path d="m34.85294,112.91177c0.29412,0 0.58823,0.29412 0.88235,0.58824c0.29412,0.29411 0.88235,0.88235 1.47059,1.47059c0.29412,0.29411 -0.01514,0.67609 0.29412,1.17647c0.34576,0.55945 0.99561,1.28589 1.76471,2.35294c0.72962,1.01229 1.00555,2.18201 1.47059,2.64706c0.46504,0.46504 0.88235,0.58823 1.76471,1.47059l0.29412,0.29412l0.58823,0l0,0.29411" id="svg_76" opacity="undefined" fill-opacity="null" stroke-opacity="null" stroke-dasharray="null" stroke-width="7" stroke="#000" fill="none"/>
  <path d="m81.02941,108.20589c-0.29412,0.29412 -0.36312,1.22124 -0.58823,1.76471c-0.15918,0.38428 -0.18156,0.90474 -0.29412,1.17647c-0.15918,0.38428 -0.45309,1.19221 -0.58823,1.7647c-0.3022,1.28015 -0.58823,1.47059 -0.58823,1.76471c0,0.29412 0.13515,1.48633 0,2.05882c-0.1511,0.64008 -0.29412,1.17648 -0.29412,1.47059c0,0.29412 0,0.58823 0,0.88235c0,0.58823 0,0.88235 0,1.17647c0,0.29412 0,0.88235 0,1.17648c0,0.29411 0,0.58823 0,0.88235c0,0.58824 0,0.88235 0,1.17648c0,0.58823 0,1.47059 0,1.7647c0,0.29412 0,0.88235 0,1.17648c0,0.29411 0,0.58823 0,0.88235c0,0.29412 0,0.58824 0,0.88235c0,0.29411 0,0.58824 0,0.88235c0,0.29411 0,0.58824 0,0.88235c0,0.29411 0,0.58823 0,0.88235c0,0.29411 0.41594,1.05464 0,1.47058c-0.20798,0.20798 -0.67438,0.20798 -0.88235,0c-0.20797,-0.20796 -0.29411,-0.29411 -0.58823,-0.29411c-0.29412,0 -0.38026,-0.08615 -0.58823,-0.29411c-0.20798,-0.20798 -0.267,-0.44008 -1.47059,-0.58824c-2.0434,-0.25156 -2.64706,0 -3.52941,0c-0.29412,0 -0.58823,0 -0.88235,0c-0.29412,0 -1.76471,0 -3.52941,0c-0.58823,0 -1.59241,-0.17229 -1.17647,-0.58824c0.20797,-0.20796 0.58823,0 0.88235,-0.29411c0.29412,-0.29411 0.3389,-0.36311 0.88235,-0.58823c0.38429,-0.15918 1.16328,-1.04388 1.47059,-2.05883c0.08524,-0.2815 0.45335,-1.08902 0.88235,-2.05882c0.49059,-1.10901 0.45309,-1.78045 0.58823,-2.35294c0.1511,-0.64008 0.17229,-1.05464 0.58823,-1.47059c0.41595,-0.41595 0.58823,-0.58823 0.88235,-0.88235c0.29412,-0.29411 0.61063,-0.47568 0.88235,-0.58823c0.76856,-0.31835 0.52643,-0.90543 0.88235,-1.7647c0.25168,-0.6076 0.20395,-1.33566 0.58823,-1.17648c0.27173,0.11256 -0.13494,0.49807 -0.29412,0.88235c-0.11256,0.27173 -0.564,0.4079 -0.88235,1.17647c-0.11256,0.27173 0,0.88235 0,1.17648c0,0.88235 -0.44006,2.0317 -0.58823,3.23529c-0.07188,0.58383 -0.15463,0.92628 0,1.17648c0.34576,0.55944 0.76053,1.64288 1.17648,2.05882c0.20797,0.20797 0.20797,0.50208 0,0.29411c-0.20797,-0.20797 -0.82265,-0.66367 -1.17648,-0.88235c-0.79118,-0.48897 -2.05541,-1.18417 -4.70588,-2.35294c-4.69988,-2.07249 -7.0317,-2.49889 -8.2353,-2.64706c-1.45957,-0.17968 -1.99098,-0.08918 -2.35294,-0.29412c-1.05527,-0.59749 -1.76471,-0.58823 -2.64706,-0.58823c-0.88235,0 -2.05882,-0.29412 -2.35294,-0.29412c-0.58824,0 -0.88235,0 -1.17647,0c-0.58823,0 -1.76691,-0.03593 -2.05882,0c-1.20359,0.14817 -2.30332,1.53545 -3.82353,2.64706c-0.85602,0.62594 -1.41875,1.31949 -2.05882,1.47059c-0.28625,0.06757 -0.55546,0.05708 -2.05882,0.88235c-0.57652,0.31647 -2.59522,1.02538 -3.23529,1.17648c-0.5725,0.13515 -1.17647,0 -1.17647,-0.29412c0,-0.58823 0.13494,-0.79219 0.29412,-1.17647c0.11256,-0.27173 0.40216,-0.84362 0.88235,-2.35294c2.29256,-7.20584 2.49889,-8.79641 2.64706,-10c0.03594,-0.29192 -0.66199,-2.40417 -1.17647,-4.11765c-0.833,-2.77437 -2.04564,-3.69093 -2.35294,-4.70589c-0.34092,-1.12598 -0.24701,-1.47439 -0.29412,-1.7647c-0.29797,-1.83614 -0.74721,-3.25104 -0.88235,-3.82353c-0.1511,-0.64008 -0.67438,-0.38026 -0.88235,-0.58823c-0.20797,-0.20798 0,-0.58823 0,-2.05882c0,-0.88235 -0.29412,-1.76471 -0.29412,-2.05883c0,-0.58823 -0.13494,-1.67454 -0.29412,-2.05882c-0.11255,-0.27173 -0.29412,-0.29411 -0.29412,-0.58823c0,-1.17647 0,-1.47059 0,-2.05882c0,-0.58823 0,-0.88235 0,-1.47059c0,-0.29412 0,-0.88235 0,-1.17647c0,-0.58824 0,-0.88235 0,-1.47059c0,-0.29412 0,-0.88235 0,-1.17648c0,-1.17647 0,-1.7647 0,-2.64706c0,-0.58823 0,-0.88235 0,-1.17647c0,-0.29412 0,-1.47059 0,-1.76471c0,-0.58823 -0.14513,-0.84663 -0.29412,-1.7647c-0.09423,-0.58064 0.20797,-1.55673 0,-1.76471c-0.20797,-0.20797 -0.29412,-0.88235 -0.29412,-1.76471l0,-0.58823l0,-0.58823l0,-0.29412" id="svg_78" opacity="undefined" fill-opacity="null" stroke-opacity="null" stroke-dasharray="null" stroke-width="7" stroke="#000" fill="none"/>
  <path d="m25.44117,111.14706c0,0.29411 0,0.88235 0,1.47059c0,0.29411 0.04244,0.56886 0.29412,1.17647c0.35593,0.85928 1.0128,2.75901 1.47059,4.41177c0.39255,1.41723 -0.09043,2.11353 0.29412,2.64706c0.24321,0.33743 0.73337,0.2584 0.88235,1.17648c0.09422,0.58064 0.58824,1.17647 0.58824,1.47059c0,0.58823 0.04353,2.34718 0.29412,4.41177c0.35615,2.93431 0.29412,4.41176 0.29412,5.88235c0,0.29411 0.05091,0.54492 0.29412,0.88235c0.38454,0.53352 1.16839,1.3669 1.47059,2.64705c0.06758,0.28625 0,0.88235 0,1.17647c0,0.58824 0,0.88235 0,2.05884c0,0.29411 0,0.88234 0,1.17647l0,-0.29413l0,-0.29411" id="svg_79" opacity="undefined" fill-opacity="null" stroke-opacity="null" stroke-dasharray="null" stroke-width="7" stroke="#000" fill="none"/>
  <path d="m76.91176,76.7353c0,0.29411 0.22655,0.89021 0.29412,1.17647c0.1511,0.64008 0.58823,1.47059 0.88235,1.76471c0.29411,0.29411 0.42905,0.49806 0.58823,0.88235c0.11256,0.27173 0.29412,0.58824 0.29412,0.88235c0,0.29412 0.08614,0.38026 0.29411,0.58823c0.20798,0.20798 0,0.58824 0,0.88235c0,0.29412 0,0.58823 0,0.88235c0,0.29411 0,0.88235 0,1.17647c0,0.29412 0.29412,0.29412 0.29412,0.58823c0,0.29412 0.13494,0.49808 0.29411,0.88235c0.11256,0.27173 0.29412,0.58823 0.29412,0.88235c0,0.29412 -0.11255,0.90474 0,1.17647c0.15918,0.38428 0.29412,0.88235 0.29412,1.17648c0,0.29411 0.29411,0.88235 0.29411,1.17647c0,0.58823 0,0.88235 0,1.17647c0,0.29412 0.08614,0.38026 0.29412,0.58824c0.20797,0.20797 0,0.58823 0,0.88235c0,0.58824 0.29411,0.58824 0.29411,0.88235c0,0.58823 0,0.88235 0.29412,1.47059c0.29411,0.58823 0.29411,1.17648 0.29411,1.76471c0,0.29411 0,0.88235 0,1.17647c0,0.58823 0,1.17647 0,1.76471c0,0.58823 0,0.88235 0,1.17647c0,0.88235 0.29412,1.17647 0.29412,1.47059c0,0.29412 0.13494,0.79218 0.29412,1.17647c0.11256,0.27173 0.14301,0.83052 0.29411,1.47059c0.20272,0.85875 0,1.47059 0,1.76471c0,0.58823 0,0.88235 0,1.47059c0,0.29411 0.13494,0.6784 0.29412,0.29411c0.11255,-0.27173 0.42905,-0.49806 0.58823,-0.88235c0.22511,-0.54346 0.08614,-0.9685 0.29412,-1.17648c0.20797,-0.20797 0.18156,-0.31651 0.29411,-0.58823c0.15918,-0.38428 0.18156,-0.61063 0.29412,-0.88235c0.15917,-0.38428 0.47568,-0.61063 0.58823,-0.88235c0.15918,-0.38428 0.72318,-0.49806 0.88235,-0.88235c0.11256,-0.27173 0.29411,-0.58823 0.29411,-0.88235c0,-0.29412 0,-0.58823 0,-0.88235c0,-0.29411 -0.29411,-0.29411 -0.58823,-0.29411c-0.29411,0 -0.58823,0 -0.58823,-0.29412l-0.29412,0l-0.29411,0l-0.29412,-0.58823" id="svg_80" opacity="undefined" fill-opacity="null" stroke-opacity="null" stroke-dasharray="null" stroke-width="7" stroke="#000" fill="none"/>
  <path d="m79.85294,104.38235c0.29412,0 1.77608,-0.16318 2.94118,0c2.12051,0.29699 2.87759,0.41767 3.82353,1.17648c0.51301,0.41152 0.88235,0.58823 0.88235,0.88235l0.29411,0l0,0.29412" id="svg_82" opacity="undefined" fill-opacity="null" stroke-opacity="null" stroke-dasharray="null" stroke-width="7" stroke="#000" fill="none"/>
  <path d="m78.67647,112.32353c0,0.29412 0,0.58823 0,0.88235c0,0.29412 0.29412,0.58823 0.29412,0.88235c0,0.29411 0.29411,0.58823 0.29411,0.88235c0,0.29411 0.08614,0.38026 0.29412,0.58823c0.41595,0.41595 0.29411,0.88235 0.29411,1.17647c0,0.29412 0.08614,0.38026 0.29412,0.58823c0.20798,0.20798 -0.20797,0.67439 0,0.88235c0.20798,0.20798 0.29412,0.29412 0.29412,0.58823c0,0.29412 0.08614,0.38026 0.29411,0.58823c0.20798,0.20798 0,0.58824 0,0.88235c0,0.29412 0,0.58823 0,0.88235c0,0.29412 0.20798,0.67438 0,0.88235c-0.20797,0.20797 -0.42905,0.20395 -0.58823,0.58823c-0.11256,0.27173 0.11256,0.61063 0,0.88235c-0.15918,0.38428 -0.29412,0.58823 -0.29412,0.88235c0,0.58823 0,0.88235 0,1.17647c0,0.29411 0,0.88235 0,1.17647c0,0.29412 0,0.58823 0,1.17648c0,0.29411 0.20798,0.67438 0,0.88235c-0.20797,0.20796 -0.29411,-0.29413 -0.29411,-0.58824l0,-0.29411" id="svg_83" opacity="undefined" fill-opacity="null" stroke-opacity="null" stroke-dasharray="null" stroke-width="7" stroke="#000" fill="none"/>
  <path d="m63.67647,131.14706c-0.29412,0 -0.58824,0 -0.58824,0.29411c0,0.29413 0,0.58824 0,1.17648c0,0.29411 0,0.88234 0,2.35294c0,1.17647 0,2.35294 0,2.64706c0,0.29411 0,0.58823 0,0.88234c0,0.29413 0,0.88235 0,1.17648c0,0.29411 0,0.58823 0,0.88235c0,0.29411 0,0.58823 0,0.88234c0,0.29413 0,0.58824 0,0.88235l0,0.58824l0,0.29411" id="svg_84" opacity="undefined" fill-opacity="null" stroke-opacity="null" stroke-dasharray="null" stroke-width="7" stroke="#000" fill="none"/>
  <path d="m28.38235,122.02942c0,0.58823 0,1.47059 0,3.52941c0,0.58823 0,1.47059 0,1.7647c0,0.58824 0,1.4706 0,2.05882c0,1.4706 0,2.64706 0,4.41177c0,0.88235 0,1.47058 0,1.76471c0,0.58823 0,0.88234 0,1.47058c0,0.29411 0,0.88235 0,1.47058c0,0.29413 0.29412,0.58824 0.29412,1.17648c0,0.29411 0.29412,1.17647 0.29412,1.76469c0,0.58824 0.13494,0.79219 0.29412,1.17648c0.2251,0.54346 0.08615,1.09032 0.29412,0.88234c0.41594,-0.41594 -0.20369,-1.5253 -0.58824,-2.05882c-0.48641,-0.67487 0.03568,-1.72902 -0.58824,-2.35294c-0.20797,-0.20798 -0.29412,-0.29411 -0.29412,-0.58824c0,-0.29411 0,-0.58823 0,-0.88234c0,-0.29413 -0.29412,-0.58824 -0.29412,-0.88235c0,-0.29413 0,-0.58824 0,-0.88235c0,-0.29411 0.11255,-0.61063 0,-0.88235c-0.15918,-0.38428 -0.29412,-0.58824 -0.29412,-0.88235c0,-0.29411 0.20797,-0.67439 0,-0.88235c-0.20797,-0.20798 0.12183,-0.4664 -0.29412,-0.88235c-0.20797,-0.20798 -0.38026,-0.08614 -0.58824,-0.29411c-0.20797,-0.20796 0.45163,-0.70395 -0.58824,-3.82353c-0.20797,-0.62392 -0.47568,-0.90474 -0.58823,-1.17647c-0.15918,-0.38428 -1.47059,-2.94118 -1.47059,-3.82353l0,-0.88235l-0.29412,0" id="svg_85" opacity="undefined" fill-opacity="null" stroke-opacity="null" stroke-dasharray="null" stroke-width="7" stroke="#000" fill="none"/>
  <path d="m81.61765,103.50001c0.29411,0 0.38026,0.08614 0.58823,0.29411c0.20798,0.20798 0.76052,-0.41595 1.17647,0c0.20798,0.20798 0.24229,0.43713 0.88235,0.58823c0.28625,0.06757 0.67438,0.08614 0.88235,0.29412c0.20798,0.20798 0.33804,0.13949 0.58823,0.29411c0.55945,0.34576 0.67438,0.38026 0.88235,0.58824c0.20797,0.20797 0.29412,0.29411 0.58823,0.29411l0,-0.29411" id="svg_87" opacity="undefined" fill-opacity="null" stroke-opacity="null" stroke-dasharray="null" stroke-width="7" stroke="#000" fill="none"/>
  <path d="m81.61765,121.14706c0,0.58823 0,0.88235 0,1.17647c0,0.58824 0,0.88235 0,1.17648c0,0.29411 -0.29412,0.58823 -0.29412,0.88235c0,0.29411 0,0.58823 0,0.88235c0,0.29412 -0.29411,0.58823 -0.29411,0.88235l0,0.29412" id="svg_88" opacity="undefined" fill-opacity="null" stroke-dasharray="null" stroke-width="7" stroke="#ffffff" fill="none"/>
  <path d="m88.97059,86.44118c0,0.29412 0,1.17648 0,2.35294c0,0.58823 0,1.7647 0,2.35294c0,0.29411 0,0.88235 0,1.17647c0,0.58823 0.29411,0.88235 0.29411,1.76471c0,0.29411 0,0.88235 0,1.47059c0,0.29411 0.06594,0.85377 0.29412,1.47059c0.42073,1.13735 0.29411,1.7647 0.29411,2.64706c0,0.29411 -0.20798,0.67438 0,0.88235c0.20798,0.20798 0.29412,0.29411 0.29412,0.88235c0,0.29412 0.29412,0.29412 0.29412,0.58824c0,0.58823 0.29411,1.17647 0.29411,1.7647c0,0.58823 0,0.88235 0,1.47059c0,0.58823 0.24701,1.47439 0.29412,1.76471c0.14898,0.91807 0.29411,1.47059 0.29411,1.7647c0,0.58823 0.14302,0.83051 0.29412,1.47059c0.06757,0.28625 0.02879,0.05164 0.58823,-0.29411c0.25019,-0.15463 0.18156,-0.31651 0.29412,-0.58824c0.15917,-0.38428 0.58823,-0.58823 0.58823,-0.88235c0,-0.29412 0,-0.58824 0,-0.88235c0,-0.58823 -0.13515,-0.89809 0,-1.47059c0.1511,-0.64008 0.38428,-0.74741 0,-0.58823c-0.27173,0.11256 -0.18156,0.31651 -0.29412,0.58823c-0.15917,0.38428 -0.58823,0.29411 -0.88235,0.29411c-0.29412,0 -0.58824,0 -0.58824,-0.29411c0,-0.29412 0,-0.58823 0,-0.88235c0,-0.58823 0,-0.88235 0,-1.17647c0,-0.29412 0,-0.58823 0,-0.88235c0,-0.29412 -0.08614,-0.7962 -0.29411,-0.58823c-0.20797,0.20797 -0.72318,0.49807 -0.88235,0.88235c-0.11255,0.27173 0.06757,0.5961 0,0.88235c-0.1511,0.64008 -0.18156,0.90475 -0.29412,1.17648c-0.15917,0.38428 -0.29411,0.88235 -0.29411,1.17647c0,0.29412 -0.20798,0.67438 0,0.88235c0.20797,0.20797 0.29411,0.29411 0.29411,0.58823l0,0.29412l0.29412,0" id="svg_89" opacity="undefined" fill-opacity="null" stroke-dasharray="null" stroke-width="7" stroke="#ffffff" fill="none"/>
  <path id="svg_90" d="m79.45867,109.21839l0,-17.05882l10.88236,17.05882l-10.88236,0z" opacity="undefined" fill-opacity="null" stroke-dasharray="null" stroke-width="7" stroke="#000000" fill="none"/>
  <path id="svg_91" d="m141.49986,119.40251l0,-1.49l1.49,1.49l-1.49,0z" opacity="undefined" fill-opacity="null" stroke-dasharray="null" stroke-width="7" stroke="#000000" fill="none"/>
  <path d="m75.44117,116.14706c0,0 0.42906,-0.09016 0.58824,0.29412c0.11255,0.27173 0.43925,0.55251 0.58823,1.47059c0.04711,0.29031 0.22654,0.89021 0.29411,1.17647c0.1511,0.64008 0.38026,0.67438 0.58824,0.88235c0.41595,0.41595 0.08614,0.67438 0.29411,0.88235c0.20798,0.20798 0,0.58824 0,0.88235c0,0.29412 0,0.58823 0,0.88235c0,0.58823 0,0.88235 0,1.17647c0,0.29412 0.29412,0.58824 0.29412,0.88235l0,0.29412l0,0.29411l0,0.29412" id="svg_92" opacity="undefined" fill-opacity="null" stroke-dasharray="null" stroke-width="7" stroke="#000000" fill="none"/>
  <path d="m81.02941,117.61765c0,0 0,0.29412 0,0.58823c0,0.29412 0,0.58823 0,0.88235c0,0.29411 -0.13494,0.79218 -0.29412,1.17647c-0.11256,0.27173 0,0.58823 0,1.17648c0,0.29411 -0.13494,0.49807 -0.29411,0.88235c-0.11256,0.27173 0,0.88235 0,1.17648c0,0.29411 -0.13494,0.49807 -0.29412,0.88235c-0.22511,0.54346 -0.29412,0.88235 -0.29412,1.17647l0,0.29411l-0.29411,0l0,0.29412" id="svg_93" opacity="undefined" fill-opacity="null" stroke-dasharray="null" stroke-width="7" stroke="#000000" fill="none"/>
  <rect id="svg_94" height="12.94118" width="7.94118" y="114.38236" x="73.38235" opacity="undefined" fill-opacity="null" stroke-dasharray="null" stroke-width="7" stroke="#000000" fill="none"/>
  <path d="m33.3547,66.19085c-0.25995,0.25996 -0.48163,0.56491 -0.77986,0.77986c-0.47156,0.33987 -0.77986,0.51991 -1.03982,0.51991c-0.25995,0 -0.51991,0 -0.77986,0c-0.25995,0 -0.30831,0.18002 -0.77986,0.51991c-0.29824,0.21496 -0.77986,0.25996 -0.77986,0.51991c0,0.25996 -0.20023,0.26691 -0.25995,0.51991c-0.13355,0.56572 -0.59605,0.59605 -0.77986,0.77986c-0.18382,0.18382 -0.12329,0.29878 -0.25995,0.51991c-0.30559,0.49446 -0.68038,0.27975 -0.77986,0.51991c-0.14069,0.33965 -0.33609,0.59605 -0.51991,0.77986c-0.18382,0.18382 -0.38325,0.29878 -0.51991,0.51991c-0.30559,0.49446 -0.59605,0.3361 -0.77986,0.51991c-0.18381,0.18382 -0.07614,0.33609 -0.25995,0.51991c-0.36763,0.36763 -0.33609,0.59605 -0.51991,0.77986c-0.18382,0.18382 -0.33609,0.3361 -0.51991,0.51991c-0.18381,0.18382 -0.37922,0.44022 -0.51991,0.77986c-0.09948,0.24017 -0.47427,0.02544 -0.77986,0.51991c-0.13667,0.22113 -0.07614,0.3361 -0.25995,0.51991c-0.18381,0.18382 -0.38636,0.21413 -0.51991,0.77986c-0.05972,0.253 -0.25995,0.25995 -0.25995,0.51991c0,0.25996 -0.33609,0.07614 -0.51991,0.25996c-0.18382,0.18382 -0.20023,0.26691 -0.25995,0.51991c-0.13355,0.56573 -0.07614,0.856 -0.25995,1.03982c-0.18382,0.18382 -0.37922,0.44022 -0.51991,0.77986c-0.09948,0.24017 -0.1264,0.73405 -0.25995,1.29977c-0.05972,0.253 0.36763,0.67219 0,1.03982c-0.18382,0.18382 -0.20023,0.2669 -0.25995,0.51991c-0.13355,0.56572 -0.42043,0.79965 -0.51991,1.03982c-0.14069,0.33965 -0.33609,0.33609 -0.51991,0.51991c-0.18382,0.18382 -0.03882,0.38325 -0.25995,0.51991c-0.49446,0.3056 -0.33609,0.59605 -0.51991,0.77986c-0.18381,0.18382 -0.25995,0.51991 -0.25995,0.77986c0,0.25996 -0.15228,0.15228 -0.51991,0.51991c-0.18382,0.18382 0.05972,0.52686 0,0.77986c-0.13355,0.56573 -0.25995,0.77987 -0.25995,1.03982c0,0.25996 -0.25995,0.51991 -0.25995,0.77986c0,0.25996 0,0.51991 0,0.77986c0,0.25996 -0.25995,0.25996 -0.25995,0.51991c0,0.51991 -0.25995,1.03982 -0.25995,1.29977c0,0.25996 0,0.51991 0,0.77987c0,0.25995 0,0.51991 0,0.77986c0,0.51991 -0.25995,0.51991 -0.25995,0.77986c0,0.51991 0,0.77986 0,1.03982c0,0.25995 0,0.51991 0,0.77986c0,0.25995 0,0.77986 0,1.03982c0,0.25995 0,0.51991 0,0.77986c0,0.25995 0,0.77986 0,1.03981c0,0.25996 0,0.51991 0,0.77987c0,0.25995 0.07614,0.33609 0.25995,0.51991c0.18381,0.18382 0.07614,0.33609 0.25995,0.51991c0.18382,0.18382 0.16047,0.27975 0.25995,0.51991c0.14069,0.33965 0.25995,0.51991 0.25995,0.77986c0,0.25996 0.25995,0.25996 0.25995,0.51991c0,0.25996 0.16047,0.27975 0.25995,0.51991c0.14069,0.33965 0.25995,0.51991 0.25995,0.77986c0,0.25996 -0.18382,0.856 0,1.03982c0.18382,0.18382 0.25995,0.25995 0.25995,0.51991c0,0.25996 0.25995,0.25996 0.25995,0.51991c0,0.25995 0.07614,0.33609 0.25995,0.51991c0.18382,0.18382 0.11927,0.44022 0.25995,0.77986c0.09948,0.24017 0.25995,0.25996 0.25995,0.51991c0,0.25996 -0.09948,0.5397 0,0.77987c0.14069,0.33965 0.25995,0.51991 0.25995,0.77986c0,0.25995 0.25995,0.25995 0.25995,0.77986c0,0.25996 -0.09948,0.5397 0,0.77986c0.14069,0.33965 0.25995,0.51991 0.25995,0.77986c0,0.25996 0,0.77986 0,1.03982c0,0.25996 -0.18382,0.59605 0,0.77986c0.18382,0.18382 0.33609,0.07614 0.51991,0.25996c0.18381,0.18382 0.33609,0.33609 0.51991,0.51991c0.18382,0.18382 0.07614,0.3361 0.25995,0.51991c0.18382,0.18382 0.33609,0.07613 0.51991,0.25995c0.18382,0.18382 0.07614,0.3361 0.25995,0.51991c0.18381,0.18382 0.07614,0.33609 0.25995,0.51991c0.18382,0.18382 0.37922,0.18026 0.51991,0.51991c0.09948,0.24017 0.07614,0.3361 0.25995,0.51991c0.18382,0.18382 0.25995,0.25996 0.25995,0.51991c0,0.25996 -0.18381,0.59605 0,0.77986c0.18382,0.18382 0.07614,0.59605 0.25995,0.77987c0.18382,0.18382 0.25995,0.25995 0.25995,0.51991c0,0.25996 -0.09948,0.5397 0,0.77986c0.14069,0.33965 0.07614,0.59605 0.25995,0.77986c0.18382,0.18382 0.25995,0.51991 0.25995,0.77986c0,0.25996 0.25995,0.51991 0.25995,0.77986c0,0.25996 0.25995,0.25996 0.25995,0.51991c0,0.25996 0.21431,0.2854 0.51991,0.77986c0.13667,0.22113 0.25995,0.51991 0.25995,0.77986c0,0.25996 0.25995,0.51991 0.25995,0.77986c0,0.25996 0.11927,0.44022 0.25995,0.77986c0.09948,0.24017 0.11927,0.44022 0.25995,0.77986c0.09949,0.24017 0,0.51991 0,0.77986c0,0.25996 0.33609,0.59604 0.51991,0.77986c0.18382,0.18382 -0.18381,0.59605 0,0.77986c0.18382,0.18382 0.25995,0.25996 0.25995,0.51991c0,0.25995 0.25995,0.51991 0.25995,0.77986c0,0.25996 -0.18381,0.59605 0,0.77986c0.18382,0.18382 0.061,0.29953 0.25995,0.77986c0.14068,0.33966 0.33609,0.33609 0.51991,0.51991c0.18381,0.18381 -0.19895,0.55948 0,1.03981c0.14069,0.33966 0.21831,0.78322 0.25995,1.03983c0.13168,0.81143 0.25995,1.03981 0.25995,1.29977c0,0.25995 -0.10767,0.93213 0.25995,1.29976c0.18382,0.18382 0.25995,0.25996 0.25995,0.51991c0,0.25995 0,0.51991 0,0.77986l0.25995,0l0,0.25995l0.25995,0" id="svg_95" opacity="undefined" fill-opacity="null" stroke-dasharray="null" stroke-width="7" stroke="#000000" fill="none"/>
  <path d="m32.31489,57.87232c0.77986,0 1.22008,0.37922 1.55972,0.51991c0.24017,0.09948 -0.25995,0 -0.51991,0c-0.25995,0 -0.51991,0 -0.77986,0c-0.25995,0 0,0 0.25995,0c0.25996,0 0.51991,0 0.77987,0l0.25995,0l0,-0.25996" id="svg_99" opacity="undefined" fill-opacity="null" stroke-dasharray="null" stroke-width="7" stroke="#ffffff" fill="none"/>
  <path d="m77.28695,80.22837c0,-0.25995 0,-0.51991 0,-0.77986l0,-0.25996l0,-0.25995" id="svg_101" opacity="undefined" fill-opacity="null" stroke-dasharray="null" stroke-width="7" stroke="#000000" fill="none"/>
  <path d="m80.66635,104.40411c0,-0.77986 -0.12828,-1.52815 -0.25996,-2.33958c-0.04164,-0.2566 0.18382,-0.44377 0,-0.25996c-0.18382,0.18382 -0.29967,0.24921 0,-0.77986c0.22984,-0.78926 0.52345,-3.16969 0,-5.19908c-0.34963,-1.35553 -0.91489,-2.34966 -1.03981,-3.11945c-0.13168,-0.81143 -0.64891,-1.27579 -0.77987,-2.33958c-0.19057,-1.54803 -0.25995,-2.59954 -0.25995,-2.8595c0,-0.77986 -0.25996,-1.29977 -0.25996,-1.55972c0,-0.51991 0,-1.03982 0,-1.29977c0,-0.51991 0,-0.77986 0,-1.03982c0,-0.25995 0,-0.51991 0,-1.29977c0,-0.25996 0,-0.51991 0,-0.77986c0,-0.25996 0,-1.03982 -0.25996,-1.81968l0,-0.77986l0,-0.25996l0,-0.25996" id="svg_103" opacity="undefined" fill-opacity="null" stroke-dasharray="null" stroke-width="7" stroke="#000000" fill="none"/>
 </g>
</svg>